<svg xmlns="http://www.w3.org/2000/svg" width="225" height="205.148" viewBox="0 0 225 205.148"><g transform="translate(-57.512 -128.38)"><g transform="translate(147.467 128.38)"><g transform="translate(25.931)"><g transform="translate(19.379 68.58)"><path d="M277.883,253.9c-5.719,12.383-37.072,18.856-35.38,6.507.392-2.857,1-6.4,1.454-9.23a10.841,10.841,0,0,0,.162-2.075c-.28-8.764-4.215-19.184-4.215-19.184l31.539-7.785s3.925-2.011,3.957-.989a145.82,145.82,0,0,0,1.592,15.4C278.2,244.606,278.194,253.225,277.883,253.9Z" transform="translate(-239.903 -220.853)" fill="#f2f2f2"/></g><path d="M276.991,236.54A45.255,45.255,0,0,1,265.9,246.616c-5.689,3.624-14.8,6.517-21.948,4.559a9.283,9.283,0,0,0,.162-2.075c-.28-8.764-4.215-19.184-4.215-19.184l31.539-7.785s3.925-2.011,3.957-.989A145.82,145.82,0,0,0,276.991,236.54Z" transform="translate(-220.524 -152.273)" fill="#c4c9ce"/><path d="M222.094,154.742s-8.363,7.96-6,29.3c0,0,11.217-20.338,10.45-25.586S222.094,154.742,222.094,154.742Z" transform="translate(-214.263 -135.137)" fill="#17162d"/><g transform="translate(1.478 11.694)"><path d="M272.783,159.508c4.657,10.989,3.18,44.707-4.126,53.779-7.036,8.737-36.391,14.786-47.314,1.747-10.588-12.639-4.481-56.544,4.872-64.343C239.989,139.205,265.9,143.274,272.783,159.508Z" transform="translate(-215.765 -144.148)" fill="#f2f2f2"/></g><g transform="translate(7.408 42.394)"><g transform="translate(22.135 10.597)"><path d="M253.818,202.63c.019-.078.157.1.151.189-.153,2.062.019,4.451,1.858,5.216.057.024.047.127-.022.114C253.538,207.732,253.342,204.559,253.818,202.63Z" transform="translate(-253.607 -200.551)" fill="#17162d"/><path d="M255.779,199.835c3.333-.111,3.309,6.562.222,6.664C252.962,206.6,252.986,199.927,255.779,199.835Z" transform="translate(-253.632 -199.833)" fill="#17162d"/></g><g transform="translate(1.656 9.934)"><path d="M231.28,201.861c-.016-.079-.162.1-.16.182.059,2.067-.222,4.444-2.1,5.124-.058.022-.053.125.017.116C231.325,206.97,231.667,203.81,231.28,201.861Z" transform="translate(-226.767 -199.689)" fill="#17162d"/><path d="M228.669,198.946c-3.324-.264-3.607,6.4-.528,6.647C231.171,205.835,231.455,199.167,228.669,198.946Z" transform="translate(-225.994 -198.939)" fill="#17162d"/></g><path d="M258.246,194.088a25.969,25.969,0,0,1-2.581-.92,4.425,4.425,0,0,1-2.454-1.439,1.412,1.412,0,0,1,.234-1.707,3.5,3.5,0,0,1,3.528-.349,5.14,5.14,0,0,1,2.954,2.235A1.505,1.505,0,0,1,258.246,194.088Z" transform="translate(-231.321 -186.532)" fill="#17162d"/><path d="M225.523,192.857a26.012,26.012,0,0,0,2.654-.679,4.43,4.43,0,0,0,2.576-1.209,1.411,1.411,0,0,0-.076-1.721,3.5,3.5,0,0,0-3.481-.67,5.139,5.139,0,0,0-3.147,1.953A1.506,1.506,0,0,0,225.523,192.857Z" transform="translate(-223.761 -186.285)" fill="#17162d"/><g transform="translate(7.02)"><path d="M247.871,233.236c-.648.429-1.333,1.058-2.173.969a6.121,6.121,0,0,1-2.339-1.043.081.081,0,0,0-.121.1,3.123,3.123,0,0,0,2.654,1.792,2.469,2.469,0,0,0,2.177-1.672C248.131,233.255,247.966,233.174,247.871,233.236Z" transform="translate(-235.812 -197.844)" fill="#f392a6"/><path d="M236.26,185.7c-2.076,7.6-2.568,16.182-3.032,23.9-.051.949,3.285-.558,3.931-.889,0,0-.17,2.915-.128,4.709l-.006.022c.006.165.016.309.033.431-.005.022-.011.044.011.05l-.011.044a.152.152,0,0,0,.116.1,2.472,2.472,0,0,0,.872.079.083.083,0,0,0,.072-.005,8.34,8.34,0,0,0,4.212-.7,14.792,14.792,0,0,0-3.443-.49c-.216.016-.436.054-.652.07.006-.022-.01-.05-.005-.072-.082-.8.588-5.977.346-6.038a14.143,14.143,0,0,0-3.733,1.127c.259-7.468,1.71-14.824,1.848-22.276A.219.219,0,0,0,236.26,185.7Z" transform="translate(-233.227 -185.544)" fill="#c4c9ce"/><path d="M238.354,222.97l-.006.022c.006.165.016.309.033.431-.005.022-.011.044.011.05a.607.607,0,0,0,.1.143.539.539,0,0,0,.469.188c4.107-.187,6.972,1,10.688,3.573.219.151.446.026.286-.179a10.948,10.948,0,0,0-6.287-4.21,14.793,14.793,0,0,0-3.443-.49,5.114,5.114,0,0,0-.657,0,5.852,5.852,0,0,0-.613.01A.6.6,0,0,0,238.354,222.97Z" transform="translate(-234.55 -195.089)" fill="#f392a6"/></g></g><g transform="translate(0.503)"><path d="M271.448,189.535c-7.017-.454-5.069-20.139-5.069-20.139s-9.926-1-12.909-10.821c0,0-27.092,6.962-34.444-2.118s-4.4-24.643-1.106-25.586c2.983-.852,8.526,3.567,8.526,3.567s1.984-5.337,4.752-5.946c4.278-.94,6.79,4.293,9.186,5.479,6.234,3.086,24.006,2.777,29.025,6.185s4.83,7.717,4.83,7.717,5.2.86,7.717,7.1C285.042,162.6,278.527,189.994,271.448,189.535Z" transform="translate(-214.45 -128.38)" fill="#17162d"/><path d="M288,201.312c-6.724-5-5.335-15.216-2.969-22.18.039-.113-.131-.154-.174-.048-2.667,6.561-4.312,18.172,2.96,22.54C288.026,201.747,288.186,201.447,288,201.312Z" transform="translate(-232.058 -141.465)" fill="#17162d"/><path d="M259.485,165.838c-5.982,2.583-11.744,5.1-18.286,5.886a39.455,39.455,0,0,1-8.815.069c-2.921-.309-8.06-.773-10.04-3.3-.025-.031-.079.01-.056.043,1.592,2.157,4.285,2.846,6.8,3.426a35.769,35.769,0,0,0,10.718.732,44.972,44.972,0,0,0,19.957-6.379A.279.279,0,0,0,259.485,165.838Z" transform="translate(-216.474 -138.052)" fill="#17162d"/><path d="M274.578,138.683c-3.457-.9-7.119-1.009-10.651-1.447-4.46-.553-9.728-.8-13.809-2.829a.079.079,0,0,0-.079.136c2.782,1.653,6.03,2.129,9.175,2.691,3.223.576,6.466.988,9.718,1.353,3.693.414,7.781.948,10.7,3.5,2.788,2.438,3.469,5.975,4.179,9.416a.3.3,0,0,0,.587-.079C284.092,145.183,280.717,140.289,274.578,138.683Z" transform="translate(-223.635 -129.935)" fill="#17162d"/><path d="M296.831,156.124c-.032,0-.036.045-.007.053,8.431,2.607,8.406,13.768,6.936,20.826-1.378,6.616-3.983,13.315-9.131,17.9-.251.223.115.581.367.366,6.064-5.15,8.944-13.613,9.905-21.3C305.635,168.095,304.75,156.7,296.831,156.124Z" transform="translate(-235.145 -135.549)" fill="#17162d"/></g><g transform="translate(0 50.908)"><g transform="translate(0 7.555)"><path d="M271.473,207.5c.742-1.662-12.249,4.545-26.246,2.607-2.866-.4-10.924-2.88-15.323-2.694s-9.384,3.557-15.432,4.393c-2.069.286.588,16.124,6.279,22.857,1.871,2.214,9.57,6.591,14.142,6.813,10.737.52,28.679-6.994,31.294-10.262C268.285,228.59,264.43,223.266,271.473,207.5Z" transform="translate(-213.772 -207.212)" fill="#fffaf4"/><g transform="translate(2.601 4.327)"><path d="M217.5,216.849a68.4,68.4,0,0,1,11.95-3.592c3.557-.678,6.807.422,10.214,1.432,9.128,2.7,18.251,2.237,27.343-.213.108-.03.151.133.049.175a40.6,40.6,0,0,1-22.841,2.047c-4.179-.785-8.376-2.7-12.675-2.392-4.694.337-9.224,2.387-13.861,3.177A.331.331,0,0,1,217.5,216.849Z" transform="translate(-217.28 -213.047)" fill="#d2e7fa"/><path d="M227.159,241.7c2.909,1.183,5.787,2.937,8.8,3.751,3.606.975,7.822-.137,11.348-.928,6.677-1.5,13.058-4.037,19.567-6.142.054-.018.074.065.024.088a94.406,94.406,0,0,1-22.516,7.386c-2.607.452-5.487,1.089-8.108.438-3.167-.786-6.348-2.806-9.181-4.424C227.013,241.823,227.066,241.666,227.159,241.7Z" transform="translate(-219.806 -219.593)" fill="#d2e7fa"/><path d="M220.754,224.792c6.784-1.887,13.142-1.546,20.079-.842a90.589,90.589,0,0,0,23.576-.768c.076-.012.113.105.035.12a77.254,77.254,0,0,1-21.015,1.305c-3.411-.257-6.8-.77-10.223-.923a44.635,44.635,0,0,0-12.341,1.492C220.624,225.231,220.513,224.859,220.754,224.792Z" transform="translate(-218.143 -215.665)" fill="#d2e7fa"/><path d="M223.03,232.922a37.437,37.437,0,0,0,20.032,3.545c7.07-.692,13.832-3.162,20.561-5.331.089-.028.126.109.042.142-13.469,5.283-27.155,8.925-40.8,2.011A.2.2,0,1,1,223.03,232.922Z" transform="translate(-218.687 -217.72)" fill="#d2e7fa"/></g></g><path d="M297.342,197.052c-4.573-.515-9.029,6.256-10.455,11.314-.128.458.492.875.817.485,1.659-2,2.823-4.339,4.292-6.475,1.583-2.3,3.5-4.258,5.221-4.621C297.365,197.724,297.485,197.069,297.342,197.052Z" transform="translate(-232.659 -197.025)" fill="#fffaf4"/><path d="M294.4,215.893a40.884,40.884,0,0,1-4.22,9.5c-1.892,2.968-4.453,5.173-6.727,7.792-.142.164-.008.475.224.394,6.669-2.326,11.237-10.7,11.477-17.585A.385.385,0,0,0,294.4,215.893Z" transform="translate(-231.76 -201.829)" fill="#fffaf4"/></g><g transform="translate(55.661 51.717)"><path d="M289.016,208.338s5.272-11.767,10.409-10.053,2.505,17.824-2.588,20.923a5.621,5.621,0,0,1-8.013-1.622Z" transform="translate(-288.825 -198.115)" fill="#f2f2f2"/><path d="M299.544,204.546c.087-.025.127.1.056.142-3.547,2.3-4.906,6.288-5.634,10.293.877-1.655,2.286-2.737,4.44-1.72.113.053.047.231-.066.228a3.473,3.473,0,0,0-3.545,1.922,17.211,17.211,0,0,0-1.237,3.429c-.116.382-.769.312-.712-.113,0-.031.01-.064.015-.1C291.855,213.693,294.384,206.037,299.544,204.546Z" transform="translate(-289.812 -199.776)" fill="#c4c9ce"/></g></g><g transform="translate(0 98.671)"><path d="M313.851,367.9H178.807s2.464-55.356,10.932-69.145c5.741-9.344,20.529-16.337,29.836-23.278,4.425-3.3,7.614-6.589,7.992-10.114l34.7-3.94c.906,4.3,3.5,7.568,7.014,10.28,10.544,8.153,29.272,11.31,34.816,22.62C311.486,309.4,313.851,367.9,313.851,367.9Z" transform="translate(-178.807 -261.428)" fill="#f2f2f2"/><g transform="translate(0 10.28)"><path d="M313.852,371.486H178.807s2.461-55.356,10.932-69.143C195.477,293,210.27,286,219.577,279.064c.977,4.752,4.163,14.743,14.028,19.086,2.754,1.213,24.81-6.312,35.677-22.861,10.544,8.154,29.273,11.31,34.816,22.62.156.317.307.655.458,1.007.036.08.07.166.106.251.02.06.05.116.075.177.232.578.464,1.2.69,1.872v.005C311.773,320.065,313.852,371.486,313.852,371.486Z" transform="translate(-178.807 -275.289)" fill="#2680eb"/><path d="M284.4,283.47c-19.775,20.532-35.736,22.818-39.2,24.23-.036-.033-14.741-8.81-18.108-20.787-.052-.186-.346-.1-.289.079,4.626,14.616,18.07,21.757,18.331,21.7,7.774-1.578,25.958-7.929,39.906-24.85C285.349,283.479,284.739,283.122,284.4,283.47Z" transform="translate(-191.208 -277.366)" fill="#0048cd"/><path d="M203.353,342.729c-.756,9-1.009,18.07-1.537,27.083q-.4,6.91-.807,13.811c-.1,1.739-.166,3.494-.248,5.254h-1.5c.1-2.107.264-4.209.368-6.273.217-4.436.507-8.873.834-13.3.248-3.37.564-6.729.911-10.089-.756-3.012-.782-6.325-1.216-9.364-.021-.145.191-.207.217-.062.342,2.128.921,4.3,1.3,6.481.476-4.508.973-9.017,1.392-13.536C203.089,342.554,203.369,342.548,203.353,342.729Z" transform="translate(-184.093 -292.679)" fill="#0048cd"/><path d="M320.178,388.124h-1.8c-.828-6.16-1.2-12.444-1.842-18.495q-.792-7.439-1.424-14.887c-1.015-2.578-1.75-5.28-2.562-7.925-.093-.3.363-.419.466-.129.621,1.729,1.284,3.463,1.874,5.212q-.458-5.986-.74-11.994c-.01-.254.419-.315.455-.056,1.31,9.56,2.35,19.157,3.375,28.754q.769,7.166,1.579,14.327C319.759,384.651,319.977,386.385,320.178,388.124Z" transform="translate(-213.361 -291.927)" fill="#0048cd"/></g></g></g><g transform="translate(57.512 137.937)"><g transform="translate(0.599 0)"><path d="M82.7,151.083c-11.42,11.19-12.444,90.9-16.546,100.154-2.9,6.546-6.805,13.294-5.93,16.5s18.283,16.575,46.134,16.575,51.857-17.45,53.9-21.241-7.291-13.707-9.041-23.914-3.5-67.369-12.491-82.826C128.54,138.828,98.177,135.917,82.7,151.083Z" transform="translate(-58.779 -141.266)" fill="#16024c"/><path d="M186.18,262.013a48.45,48.45,0,0,1-8.21-20.186c-1.46-8.121-2.01-16.42-2.691-24.635Q174.2,204.2,173.112,191.21c-.65-7.649-1.112-15.407-3.973-22.621a42.822,42.822,0,0,0-13.417-17.856c-.086-.067-.208.048-.122.122a45.426,45.426,0,0,1,12.734,17.955c2.991,7.747,3.277,16.176,3.944,24.36q1.038,12.746,2.119,25.49a233.7,233.7,0,0,0,2.67,23.416c1.33,7.106,3.631,14.859,8.725,20.237C185.98,262.513,186.346,262.246,186.18,262.013Z" transform="translate(-83.446 -143.707)" fill="#16024c"/><path d="M84.453,153.24c-6.133,4.912-8.072,12.71-9.436,20.108-1.855,10.054-3.366,20.173-4.675,30.311-1.351,10.461-2.1,20.981-3.378,31.446s-4.408,19.9-8.626,29.52c-.095.217.2.406.326.191,9.881-16.931,9.907-37.332,12.214-56.231q1.917-15.693,4.382-31.315c1.342-8.421,2.557-17.916,9.333-23.889C84.689,153.294,84.55,153.163,84.453,153.24Z" transform="translate(-58.319 -144.354)" fill="#16024c"/><path d="M91.359,148.02c-13.268,8.17-15.838,24.847-17.812,39.052-2.345,16.876-3.058,33.911-4.7,50.857-.926,9.541-1.429,19.824-5.97,28.469-.138.263.251.495.4.234,3.587-6.242,4.62-13.386,5.505-20.424,1.061-8.432,1.748-16.9,2.426-25.374,1.342-16.777,2.2-33.992,6.273-50.384,2.143-8.626,6.154-17.41,13.966-22.288C91.533,148.106,91.451,147.963,91.359,148.02Z" transform="translate(-59.488 -143.008)" fill="#16024c"/></g><g transform="translate(6.695 3.109)"><g transform="translate(27.446 60.873)"><path d="M106.513,271.179c3.291,5.094,21.26,1.113,22.833-4.419a144.577,144.577,0,0,0,1.926-17.24l.109-2.423c.036-.808.06-1.58.067-2.349.026-1.029.037-2.038.048-3.047.095-7.633.122-14.163.122-14.163l-3.52,1.377-24.552,10.737,1.2,19.448.062,1.188.031.389S105.917,270.257,106.513,271.179Z" transform="translate(-103.547 -227.539)" fill="#f2f2f2"/><path d="M104.811,260.289a20.275,20.275,0,0,0,9.707.845c7.436-1.077,12.615-5.871,16.755-11.614l.109-2.423c.036-.808.06-1.58.067-2.349.026-1.029.037-2.038.048-3.047.095-7.633.122-14.163.122-14.163l-3.52,1.377-24.552,10.737,1.2,19.448Z" transform="translate(-103.547 -227.539)" fill="#c4c9ce"/></g><g transform="translate(0 42.126)"><path d="M71.69,223.665a.847.847,0,0,0,.127.088,5.836,5.836,0,0,0,8.294-1.5l-.021-9.414S74.9,200.826,69.566,202.4a.048.048,0,0,1-.035.015C64.253,204.061,66.58,220.24,71.69,223.665Z" transform="translate(-66.539 -202.26)" fill="#f2f2f2"/><path d="M71.639,208.8c-.089-.027-.132.1-.061.145,3.616,2.4,4.944,6.486,5.622,10.575-.874-1.7-2.307-2.826-4.548-1.83-.118.052-.053.234.064.233a3.588,3.588,0,0,1,3.62,2.02,17.267,17.267,0,0,1,1.213,3.512c.113.39.788.332.736-.1,0-.032-.01-.066-.013-.1C79.4,218.252,76.934,210.416,71.639,208.8Z" transform="translate(-67.832 -203.95)" fill="#d97d8b"/><path d="M70.538,217.083a38.376,38.376,0,0,0,1.979,6.582.847.847,0,0,0,.127.088,5.836,5.836,0,0,0,8.294-1.5l-.021-9.414S75.725,200.826,70.394,202.4A37.769,37.769,0,0,0,70.538,217.083Z" transform="translate(-67.367 -202.26)" fill="#c4c9ce"/><path d="M72.915,227.507c3.591-.257,4,5.324.4,5.581S69.318,227.764,72.915,227.507Z" transform="translate(-67.539 -208.781)" fill="#d2e7fa"/></g><path d="M82.527,163.744s-18.954,9.089-9.408,33.145C81.794,218.747,82.527,163.744,82.527,163.744Z" transform="translate(-67.545 -150.183)" fill="#16024c"/><path d="M73.974,194.693c-.369,34.521,18.939,36.633,24.8,37.679,6.652,1.187,32.686.461,36.62-33.838s-12-45.382-27.446-46.349S74.344,160.172,73.974,194.693Z" transform="translate(-68.459 -147.178)" fill="#f2f2f2"/><g transform="translate(11.1 35.729)"><path d="M109.724,235.724c-.519.593-1.02,1.391-1.866,1.529a6.227,6.227,0,0,1-2.565-.395.082.082,0,0,0-.092.128,3.167,3.167,0,0,0,3.073,1.043,2.5,2.5,0,0,0,1.683-2.215C109.984,235.674,109.8,235.638,109.724,235.724Z" transform="translate(-87.624 -204.498)" fill="#d97d8b"/><path d="M84.789,194.816a22.37,22.37,0,0,1,2.284-.683,3.847,3.847,0,0,1,2.462-.252,1.229,1.229,0,0,1,.716,1.318,3.045,3.045,0,0,1-2.3,2.06,4.477,4.477,0,0,1-3.223-.047A1.31,1.31,0,0,1,84.789,194.816Z" transform="translate(-82.145 -193.667)" fill="#16024c"/><path d="M118.961,196.218a22.371,22.371,0,0,0-2.284-.682,3.85,3.85,0,0,0-2.463-.252,1.228,1.228,0,0,0-.715,1.319,3.046,3.046,0,0,0,2.3,2.059,4.471,4.471,0,0,0,3.222-.049A1.31,1.31,0,0,0,118.961,196.218Z" transform="translate(-89.767 -194.029)" fill="#16024c"/><g transform="translate(8.178)"><path d="M106.344,241.089c-.656.4-1.358.989-2.183.866a6.05,6.05,0,0,1-2.263-1.125.08.08,0,0,0-.123.092,3.083,3.083,0,0,0,2.543,1.876,2.439,2.439,0,0,0,2.217-1.558C106.6,241.118,106.44,241.031,106.344,241.089Z" transform="translate(-94.92 -205.825)" fill="#d97d8b"/><path d="M96.512,193.782c-2.36,7.407-3.2,15.85-3.977,23.445-.09.934,3.262-.415,3.914-.713,0,0-.288,2.866-.321,4.637l-.007.021c0,.164,0,.306.014.426-.006.022-.013.043.009.05l-.013.043a.15.15,0,0,0,.11.1,2.45,2.45,0,0,0,.857.113.081.081,0,0,0,.07,0,8.232,8.232,0,0,0,4.184-.517,14.586,14.586,0,0,0-3.376-.626c-.213.007-.432.036-.645.043.007-.022-.009-.05,0-.071-.047-.788.827-5.87.59-5.94a13.968,13.968,0,0,0-3.728.957c.564-7.354,2.3-14.547,2.743-21.89A.217.217,0,0,0,96.512,193.782Z" transform="translate(-92.534 -193.635)" fill="#99a2ab"/><path d="M97.378,230.586l-.007.022c0,.164,0,.306.014.426-.006.022-.013.043.009.05a.6.6,0,0,0,.1.146.534.534,0,0,0,.455.205c4.057-.016,6.834,1.274,10.391,3.965.21.158.44.044.29-.165a10.8,10.8,0,0,0-6.025-4.411,14.586,14.586,0,0,0-3.376-.626,5.094,5.094,0,0,0-.647-.028,5.835,5.835,0,0,0-.605-.016A.588.588,0,0,0,97.378,230.586Z" transform="translate(-93.783 -203.07)" fill="#d97d8b"/><g transform="translate(3.326 26.865)"><path d="M97.556,235.061a2.891,2.891,0,0,0,1.105.141c.889-.007,1.949-.179,2.721-.212,1.122-.063,7.491,2.938,7.563,1.152.027-.6-.652-1.714-1.827-2.853a14.242,14.242,0,0,0-4.035-2.712c-3.516-1.515-5.034-.237-5.36.268C96.927,232.006,96.716,234.729,97.556,235.061Z" transform="translate(-97.018 -229.859)" fill="#16024c"/><path d="M99.222,235.781a.608.608,0,0,0,.005.255c.889-.007,1.949-.179,2.721-.212,1.122-.063,7.491,2.938,7.563,1.152.027-.6-.652-1.714-1.827-2.853a7.391,7.391,0,0,0-2.887-.972C101.939,232.8,99.451,233.973,99.222,235.781Z" transform="translate(-97.584 -230.694)" fill="#d97d8b"/></g></g><g transform="translate(22.785 11.269)"><path d="M112.6,211.838c.027-.087.172.128.159.225-.306,2.332-.263,5.053,1.775,6.04.064.03.045.147-.032.128C111.953,217.611,111.933,214,112.6,211.838Z" transform="translate(-112.229 -209.601)" fill="#16024c"/><path d="M114.968,208.83c3.791.087,3.338,7.661-.174,7.581C111.339,216.331,111.791,208.757,114.968,208.83Z" transform="translate(-112.271 -208.829)" fill="#16024c"/><path d="M117.677,209.472c.636.468,1.239,1.263,2.031,1.39.917.146,1.662-.605,2.311-1.332.067-.075.128-.005.124.095-.065,1.454-.713,2.909-2.281,3.032-1.431.113-2.373-1.234-2.648-2.714C117.163,209.668,117.421,209.283,117.677,209.472Z" transform="translate(-113.516 -208.982)" fill="#16024c"/></g><g transform="translate(0 10.266)"><g transform="translate(2.71)"><path d="M91.179,210.668c-.021-.089-.179.119-.172.214.167,2.346-.036,5.061-2.13,5.925-.065.027-.053.144.024.13C91.48,216.47,91.714,212.864,91.179,210.668Z" transform="translate(-86.109 -208.296)" fill="#16024c"/><path d="M88.035,207.479c-3.789-.137-3.785,7.451-.274,7.578C91.215,215.183,91.212,207.6,88.035,207.479Z" transform="translate(-85.16 -207.478)" fill="#16024c"/></g><path d="M85.509,208.012c-.6.4-1.192,1.133-1.908,1.181-.83.056-1.445-.765-1.976-1.551-.055-.082-.114-.018-.117.082-.039,1.451.441,2.961,1.835,3.239,1.271.254,2.2-.992,2.549-2.437C85.956,208.258,85.75,207.85,85.509,208.012Z" transform="translate(-81.506 -207.51)" fill="#16024c"/></g></g><g transform="translate(5.554)"><path d="M133.312,203.4c-4.66,0-7.344-10.481-7.347-18.221,0,0-8.481-.977-10.377-13.916a52.394,52.394,0,0,1-17.733,5.979c-9.112,1.2-20.043-.6-23.379-9.369-2.628-6.91,6.28-22.4,27.528-22.42,22.313-.016,31.242,20.028,31.242,20.028s8.11,5.53,9.6,13.452S137.143,203.4,133.312,203.4Z" transform="translate(-74.028 -145.458)" fill="#16024c"/><path d="M142.923,192.671a10.525,10.525,0,0,1-10.86-6.009c-2.26-4.369-1.687-9.342-.9-14.009.027-.162-.216-.235-.251-.069-1.123,5.342-2,10.714,1.115,15.6,2.306,3.618,6.6,6.325,10.963,4.985C143.247,193.086,143.217,192.64,142.923,192.671Z" transform="translate(-88.458 -152.442)" fill="#16024c"/><path d="M122.185,172.56c-4.534,5.8-10.392,9.175-17.489,11.04-7.2,1.893-16.2,3.274-22.943-.791a.04.04,0,0,0-.04.068c7.115,4.372,14.962,3.719,22.806,1.765,6.939-1.729,14.553-5.137,18.085-11.758C122.739,172.631,122.38,172.311,122.185,172.56Z" transform="translate(-76.009 -152.437)" fill="#16024c"/></g><g transform="translate(5.053 46.979)"><g transform="translate(0 7.457)"><path d="M131.518,219.142c.748-1.641-12.349,4.485-26.459,2.573-2.889-.392-11.012-2.843-15.447-2.659s-9.459,3.51-15.557,4.336c-2.086.283.593,15.912,6.329,22.558,1.887,2.186,9.647,6.5,14.256,6.724,10.824.513,28.91-6.9,31.547-10.128C128.3,239.958,124.418,234.7,131.518,219.142Z" transform="translate(-73.352 -218.859)" fill="#fffaf4"/><g transform="translate(2.622 4.27)"><path d="M77.105,228.369a70.077,70.077,0,0,1,12.045-3.546c3.586-.669,6.863.417,10.3,1.414,9.2,2.668,18.4,2.208,27.563-.21a.09.09,0,0,1,.05.173,41.752,41.752,0,0,1-23.027,2.02c-4.212-.775-8.443-2.664-12.777-2.361-4.732.332-9.3,2.356-13.972,3.136A.326.326,0,0,1,77.105,228.369Z" transform="translate(-76.888 -224.617)" fill="#d2e7fa"/><path d="M86.846,252.9c2.933,1.167,5.834,2.9,8.874,3.7,3.634.962,7.884-.135,11.44-.917,6.731-1.48,13.163-3.984,19.725-6.062.055-.017.075.065.024.087a96.583,96.583,0,0,1-22.7,7.289c-2.628.446-5.531,1.075-8.173.433-3.193-.776-6.4-2.77-9.255-4.367C86.7,253.018,86.752,252.862,86.846,252.9Z" transform="translate(-79.433 -231.077)" fill="#d2e7fa"/><path d="M80.39,236.209c6.838-1.862,13.248-1.526,20.242-.832a93.275,93.275,0,0,0,23.766-.758c.076-.012.113.1.036.119a79.489,79.489,0,0,1-21.185,1.288c-3.439-.254-6.859-.759-10.3-.911A45.931,45.931,0,0,0,80.5,236.586C80.259,236.642,80.147,236.275,80.39,236.209Z" transform="translate(-77.757 -227.201)" fill="#d2e7fa"/><path d="M82.683,244.232a38.441,38.441,0,0,0,20.194,3.5c7.127-.682,13.943-3.121,20.727-5.261.09-.028.127.108.042.14-13.577,5.215-27.375,8.809-41.133,1.985A.2.2,0,1,1,82.683,244.232Z" transform="translate(-78.305 -229.228)" fill="#d2e7fa"/></g></g><path d="M157.6,208.831c-4.611-.509-9.1,6.175-10.539,11.167-.13.451.5.863.822.479,1.672-1.971,2.846-4.283,4.327-6.391,1.6-2.272,3.524-4.2,5.263-4.56C157.619,209.494,157.74,208.847,157.6,208.831Z" transform="translate(-92.391 -208.804)" fill="#fffaf4"/><path d="M154.625,227.426a39.963,39.963,0,0,1-4.254,9.38c-1.907,2.929-4.488,5.105-6.781,7.691-.143.161-.009.468.225.388,6.723-2.295,11.328-10.556,11.57-17.356A.389.389,0,0,0,154.625,227.426Z" transform="translate(-91.484 -213.545)" fill="#fffaf4"/></g><g transform="translate(62.156 46.707)"><path d="M150.35,219.136s5.058-12.137,10.409-10.558,3.155,18.05-2,21.365a5.838,5.838,0,0,1-8.312-1.394Z" transform="translate(-150.35 -208.437)" fill="#f2f2f2"/><path d="M161.029,214.972c.089-.028.133.095.062.143-3.584,2.453-4.855,6.552-5.478,10.65.851-1.711,2.269-2.856,4.522-1.891.119.05.056.233-.061.234a3.591,3.591,0,0,0-3.592,2.068,17.309,17.309,0,0,0-1.166,3.528c-.107.392-.783.342-.738-.092,0-.032.009-.065.013-.1C153.395,224.521,155.757,216.654,161.029,214.972Z" transform="translate(-151.367 -210.124)" fill="#c4c9ce"/><path d="M157.7,234.968c3.521-.754,4.7,4.716,1.172,5.471S154.173,235.723,157.7,234.968Z" transform="translate(-151.699 -215.273)" fill="#d2e7fa"/></g></g><g transform="translate(0 97.816)"><path d="M162.5,370.936H57.513s1.6-48.7,6.853-58.62,18.7-18.473,22.445-22.456a20.292,20.292,0,0,0,3.756-6.375,46.338,46.338,0,0,0,2.543-9.648l25.174-.676a25.7,25.7,0,0,0,2.147,10.557,16.776,16.776,0,0,0,2.969,4.416c6.521,6.935,21.6,7.851,28.9,20.683S162.5,370.936,162.5,370.936Z" transform="translate(-57.512 -273.161)" fill="#f2f2f2"/><g transform="translate(0 10.326)"><path d="M162.5,374.534H57.512s1.606-48.7,6.856-58.618,18.7-18.472,22.443-22.459a20.278,20.278,0,0,0,3.756-6.372c1.449,2.773,9.865,16.257,29.867.231a16.782,16.782,0,0,0,2.964,4.414c6.523,6.936,21.609,7.852,28.9,20.682S162.5,374.534,162.5,374.534Z" transform="translate(-57.512 -287.085)" fill="#0a437d"/><path d="M132.286,295.573c-4.809,4.717-10.128,7.949-17.082,7.964-6.06.013-12.7-2.374-15.632-8.016-.079-.153-.35-.045-.283.119,2.394,5.9,8.9,8.458,14.9,8.661,6.842.231,14.338-2.814,18.386-8.5C132.706,295.623,132.434,295.429,132.286,295.573Z" transform="translate(-68.304 -289.246)" fill="#52527c"/><path d="M167.888,387.9h-1.061c-1.913-16.273-2.952-32.664-4.381-48.984a.076.076,0,1,1,.152-.011C164.388,355.23,166.588,371.526,167.888,387.9Z" transform="translate(-84.624 -300.456)" fill="#52527c"/><path d="M78.439,388.161H77.155c-5.739-5.314-6.556-12.973-4.8-20.508,1.12-4.789,2.957-9.385,4.415-14.069,1.4-4.515,2.579-9.111,3.593-13.73a.036.036,0,1,1,.07.017c-1.254,8.2-3.546,15.941-5.885,23.857C71.976,372.435,71.23,381.558,78.439,388.161Z" transform="translate(-61.135 -300.712)" fill="#52527c"/></g></g></g></g></svg>