<svg xmlns="http://www.w3.org/2000/svg" width="182.665" height="220.701" viewBox="0 0 182.665 220.701"><g transform="translate(-71.941 -46.871)"><g transform="translate(71.941 59.956)"><g transform="translate(0 92.346)"><g transform="translate(0 0)"><path d="M74.338,247.979s-5.465,1.884.106,13.569a149.944,149.944,0,0,0,9.491,17.5s.971,2.7-1.293,3.059-7.2-.57-8.28,2.16c-1.118,2.831.886,5.584,5.033,8.063s13.032,8.245,13.833,8.769,1.556,1.782.053,2.271-12.692,1.353-11.964,6.637S94.732,320.3,96.109,320.876s1.693,1.172,1.559,1.933-3.922.7-7.094,1.073-6.784,1.368-6.109,4.382,8.1,9.507,26.475,11.809l8.586.509,4.872-7.135c9.5-15.9,8.945-25.748,6.986-28.135s-4.964-.151-7.213,2.118-4.53,5.294-5.211,4.932-.959-.981-.564-2.419,4.254-14.52.537-18.346-11.284,4.461-12.594,5.345-1.836-.5-1.757-1.439c.08-.954,1-11.506,1.6-16.3s-.339-8.067-3.257-8.929c-2.815-.83-5.126,3.632-6.8,5.2s-3.207-.864-3.207-.864a149.842,149.842,0,0,0-7.954-18.252c-5.782-11.582-10.737-8.331-10.737-8.331" transform="translate(-71.941 -247.605)" fill="#ebebeb"/></g><g transform="translate(7.369 10.848)"><path d="M126.578,352.421c-4.213-8.523-11.447-23.8-17.725-36.878s-11.97-24.911-16.139-33.454l-4.948-10.112c-.579-1.186-1.031-2.112-1.344-2.751l-.343-.719c-.076-.163-.109-.249-.109-.249s.049.078.133.236l.367.707,1.389,2.728c1.2,2.371,2.92,5.814,5.024,10.076,4.213,8.523,9.934,20.345,16.21,33.421s13.485,28.366,17.654,36.91" transform="translate(-85.971 -268.259)" fill="#e0e0e0"/></g><g transform="translate(9.279 38.234)"><path d="M89.607,320.4a2.779,2.779,0,0,1,.6.183c.377.133.917.34,1.581.6,1.328.528,3.144,1.3,5.132,2.2l5.082,2.3,1.543.688a2.811,2.811,0,0,1,.558.276,2.819,2.819,0,0,1-.6-.179c-.377-.134-.917-.341-1.579-.611-1.324-.542-3.128-1.341-5.116-2.234l-5.1-2.267-1.547-.681A2.834,2.834,0,0,1,89.607,320.4Z" transform="translate(-89.607 -320.4)" fill="#e0e0e0"/></g><g transform="translate(24.37 27.016)"><path d="M118.342,315.98c-.069-.027,1.367-3.841,3.206-8.518s3.386-8.448,3.455-8.421-1.367,3.84-3.207,8.518S118.41,316.007,118.342,315.98Z" transform="translate(-118.339 -299.042)" fill="#e0e0e0"/></g><g transform="translate(33.105 51.343)"><path d="M134.971,358.489a2.912,2.912,0,0,1,.363-.521l1.056-1.366c.89-1.154,2.111-2.753,3.395-4.567s2.4-3.491,3.189-4.714l.94-1.447a2.936,2.936,0,0,1,.371-.516,2.847,2.847,0,0,1-.282.569c-.2.358-.492.87-.869,1.494-.753,1.251-1.839,2.952-3.131,4.768s-2.536,3.4-3.465,4.53c-.466.561-.849,1.011-1.123,1.314A2.87,2.87,0,0,1,134.971,358.489Z" transform="translate(-134.97 -345.358)" fill="#e0e0e0"/></g><g transform="translate(18.316 62.298)"><path d="M106.813,366.225a2.466,2.466,0,0,1,.587.026l1.587.169c1.339.154,3.186.385,5.223.658s3.881.533,5.213.735l1.576.253a2.475,2.475,0,0,1,.573.129,2.527,2.527,0,0,1-.587-.026L119.4,368c-1.339-.154-3.186-.386-5.223-.658s-3.88-.533-5.213-.735l-1.576-.253A2.518,2.518,0,0,1,106.813,366.225Z" transform="translate(-106.813 -366.216)" fill="#e0e0e0"/></g><g transform="translate(23.725 81.393)"><path d="M117.112,402.58a4.019,4.019,0,0,1,.751.04l2.035.209c1.716.188,4.086.466,6.7.79s4.981.631,6.692.867l2.024.294a4.109,4.109,0,0,1,.737.143,4.014,4.014,0,0,1-.75-.04l-2.035-.209c-1.717-.188-4.086-.466-6.7-.79s-4.98-.631-6.691-.867l-2.024-.293A4.013,4.013,0,0,1,117.112,402.58Z" transform="translate(-117.112 -402.572)" fill="#e0e0e0"/></g><g transform="translate(42.227 66.583)"><path d="M152.338,391.352a4.628,4.628,0,0,1,.443-.672l1.276-1.78c1.076-1.5,2.553-3.586,4.119-5.931s2.936-4.5,3.913-6.071l1.159-1.858a4.688,4.688,0,0,1,.452-.667,4.673,4.673,0,0,1-.362.72c-.248.454-.617,1.106-1.087,1.9-.937,1.6-2.279,3.774-3.853,6.122s-3.074,4.418-4.189,5.895c-.56.737-1.019,1.329-1.346,1.731A4.674,4.674,0,0,1,152.338,391.352Z" transform="translate(-152.337 -374.374)" fill="#e0e0e0"/></g></g><g transform="translate(120.611 69.567)"><path d="M322.168,293.924c-13.323-6.582-18.431-21.783-20.091-35.894-.277-2.355-.91-4.786-.109-7.012s3.189-4.026,5.438-3.358c1.865.555,2.931,2.463,4.159,3.989a13.861,13.861,0,0,0,6.294,4.413c1.61.547,3.528.74,4.878-.3,1.851-1.423,1.665-4.252,1.3-6.581q-1.032-6.509-2.064-13.018a21.992,21.992,0,0,1-.35-7.029,7.313,7.313,0,0,1,3.8-5.579c2.123-.958,5.059-.1,5.874,2.113a21.745,21.745,0,0,1,.508,2.892,2.479,2.479,0,0,0,1.785,2.089c.972.132,1.8-.671,2.4-1.459a31.353,31.353,0,0,0,4.286-9.246,43.485,43.485,0,0,1,3.87-9.457c1.792-2.9,4.5-5.392,7.811-6.089s7.179.822,8.521,3.97-.064,6.783-1.745,9.76a52.618,52.618,0,0,1-9.261,11.973,4.329,4.329,0,0,0-1.515,2.224c-.27,1.631,1.437,2.95,3.049,3.228,1.825.315,3.683-.153,5.532-.215s3.941.439,4.889,2.052c1.317,2.237-.3,5.037-2.007,6.971a45.072,45.072,0,0,1-12.031,9.62,15.209,15.209,0,0,0-4.538,3.128c-1.2,1.415-1.715,3.637-.63,5.151s3.31,1.715,5.055,1.109a31.412,31.412,0,0,0,4.817-2.732c3.018-1.7,7.188-2.1,9.661.351a7.461,7.461,0,0,1,1.777,6.4,17.2,17.2,0,0,1-2.657,6.3,45.328,45.328,0,0,1-17.089,16.359c-7.037,3.707-13.816,5.451-21.61,3.875" transform="translate(-301.577 -204.234)" fill="#f5f5f5"/><g transform="translate(22.876 1.453)"><path d="M345.131,285.885A211.139,211.139,0,0,1,350,262.14q.808-3.118,1.6-6.158c.528-2.02,1.053-4.024,1.686-5.951a105.513,105.513,0,0,1,4.275-10.869c1.527-3.392,3.1-6.554,4.592-9.5s2.948-5.663,4.374-8.084a83.717,83.717,0,0,1,7.574-10.912c.992-1.214,1.792-2.13,2.342-2.744l.63-.694A1.69,1.69,0,0,1,377.3,207a1.721,1.721,0,0,1-.193.256l-.6.722c-.528.632-1.307,1.566-2.278,2.794a88.467,88.467,0,0,0-7.44,10.963c-1.406,2.424-2.835,5.144-4.318,8.091s-3.036,6.115-4.549,9.5a106.642,106.642,0,0,0-4.234,10.836c-.627,1.918-1.144,3.9-1.673,5.929s-1.055,4.078-1.594,6.156a216.418,216.418,0,0,0-4.893,23.691" transform="translate(-345.131 -207.001)" fill="#e0e0e0"/></g><g transform="translate(23.838 19.323)"><path d="M354.271,266.148a4.771,4.771,0,0,1-.379-.959c-.221-.626-.509-1.54-.849-2.677-.683-2.271-1.518-5.438-2.427-8.934s-1.787-6.644-2.5-8.9c-.355-1.128-.651-2.038-.863-2.664a4.7,4.7,0,0,1-.284-.992,4.736,4.736,0,0,1,.442.932c.262.609.6,1.507,1,2.626.793,2.237,1.722,5.384,2.631,8.884l2.3,8.961c.284,1.076.524,1.983.716,2.711A4.74,4.74,0,0,1,354.271,266.148Z" transform="translate(-346.962 -241.025)" fill="#e0e0e0"/></g><g transform="translate(31.146 34.28)"><path d="M389.99,269.509a6.587,6.587,0,0,1-1.174.325c-.758.185-1.857.447-3.2.815-2.7.714-6.394,1.83-10.416,3.241s-7.6,2.856-10.166,3.971c-1.286.548-2.314,1.02-3.027,1.342a6.469,6.469,0,0,1-1.126.465,6.475,6.475,0,0,1,1.051-.619c.692-.369,1.7-.885,2.976-1.472,2.537-1.191,6.116-2.679,10.148-4.1a106.965,106.965,0,0,1,10.484-3.127c1.361-.33,2.474-.547,3.246-.681A6.364,6.364,0,0,1,389.99,269.509Z" transform="translate(-360.877 -269.501)" fill="#e0e0e0"/></g><g transform="translate(2.25 43.755)"><path d="M326.771,323.516a1.523,1.523,0,0,1-.261-.334l-.678-1.006c-.585-.876-1.4-2.167-2.38-3.773-1.968-3.213-4.546-7.736-7.324-12.766s-5.313-9.573-7.211-12.822l-2.26-3.842-.609-1.049a1.556,1.556,0,0,1-.187-.382,1.608,1.608,0,0,1,.261.335l.677,1.005c.585.876,1.4,2.166,2.38,3.773,1.968,3.212,4.547,7.736,7.326,12.768s5.312,9.571,7.21,12.821c.929,1.578,1.692,2.877,2.259,3.841.244.42.444.766.609,1.049A1.6,1.6,0,0,1,326.771,323.516Z" transform="translate(-305.86 -287.541)" fill="#e0e0e0"/></g><g transform="translate(23.16 60.836)"><path d="M383.538,320.065a1.615,1.615,0,0,1-.371.223l-1.1.564-4.054,2.031c-3.422,1.715-8.122,4.139-13.312,6.823s-9.918,5.069-13.377,6.714c-1.73.823-3.135,1.475-4.116,1.906l-1.132.489a1.55,1.55,0,0,1-.407.143,1.666,1.666,0,0,1,.37-.224l1.1-.562,4.053-2.031c3.422-1.715,8.123-4.139,13.314-6.824s9.915-5.068,13.374-6.712c1.73-.824,3.135-1.475,4.116-1.906l1.132-.489A1.587,1.587,0,0,1,383.538,320.065Z" transform="translate(-345.673 -320.063)" fill="#e0e0e0"/></g></g><g transform="translate(19.071)"><g transform="translate(0.178)"><path d="M110.156,71.87a7.949,7.949,0,0,1,5.991,1.687,14.028,14.028,0,0,1,3.888,5.014c1.834,3.7,2.121,8.442,1.79,12.557-4.537-.66-8.057-4.647-9.715-6.782-2.621-3.375-5.31-11.065-1.954-12.475" transform="translate(-108.589 -71.784)" fill="#f5f5f5"/></g><g transform="translate(18.551 10.241)"><path d="M145.48,103.895a6.782,6.782,0,0,1-1.656-6.605,9,9,0,0,1,4.456-5.345,3.792,3.792,0,0,1,3.159-.481,2.9,2.9,0,0,1,1.632,2.445,5.884,5.884,0,0,1-.666,2.981c-1.5,3.2-3.532,6.024-6.926,7.005" transform="translate(-143.572 -91.283)" fill="#f5f5f5"/></g><g transform="translate(20.231 15.468)"><path d="M148.708,118.808a13.352,13.352,0,0,1-1.066-2.512,12.646,12.646,0,0,1-.642-2.913,27.757,27.757,0,0,1-.226-3.633,13.564,13.564,0,0,1,1.642-6.388,9.829,9.829,0,0,1,1.176-1.632c.33-.342.528-.514.55-.493.063.055-.676.8-1.438,2.28a14.552,14.552,0,0,0-1.467,6.244,32.62,32.62,0,0,0,.186,3.576,13.952,13.952,0,0,0,.53,2.859A19.557,19.557,0,0,1,148.708,118.808Z" transform="translate(-146.769 -101.235)" fill="#e0e0e0"/></g><g transform="translate(4.307 5.761)"><path d="M116.454,82.752a7.946,7.946,0,0,1,.86,1.08c.529.713,1.282,1.754,2.2,3.049,1.835,2.589,4.331,6.2,6.989,10.246s4.96,7.787,6.57,10.524c.8,1.368,1.442,2.483,1.868,3.263a7.892,7.892,0,0,1,.622,1.233,7.947,7.947,0,0,1-.777-1.141l-1.993-3.184c-1.679-2.691-4.022-6.393-6.677-10.44l-6.871-10.313-2.078-3.131A7.9,7.9,0,0,1,116.454,82.752Z" transform="translate(-116.452 -82.752)" fill="#e0e0e0"/></g><g transform="translate(0 23.333)"><path d="M125.186,119.88a15.865,15.865,0,0,0-14.148-3.151c-1.235.334-2.612,1.044-2.772,2.314s1.01,2.3,2.142,2.9a13.553,13.553,0,0,0,14.936-1.757" transform="translate(-108.251 -116.209)" fill="#f5f5f5"/></g><g transform="translate(5.792 25.611)"><path d="M119.279,121.027a2.2,2.2,0,0,1,.706-.169c.459-.086,1.129-.164,1.96-.24a17.9,17.9,0,0,1,6.5.561,11.212,11.212,0,0,1,3.25,1.607,10.926,10.926,0,0,1,3.194,3.729,2.182,2.182,0,0,1,.292.666c-.08.047-.561-.872-1.619-2.126a11.718,11.718,0,0,0-2.115-1.923,11.541,11.541,0,0,0-3.138-1.512,20.125,20.125,0,0,0-6.347-.677A23.038,23.038,0,0,1,119.279,121.027Z" transform="translate(-119.279 -120.546)" fill="#e0e0e0"/></g></g></g><g transform="translate(73.822 75.245)"><g transform="translate(148.486)"><g transform="translate(0)"><path d="M2.614,0H18.268a2.614,2.614,0,0,1,2.614,2.614V18.268a2.614,2.614,0,0,1-2.614,2.614H2.614A2.614,2.614,0,0,1,0,18.268V2.614A2.614,2.614,0,0,1,2.614,0Z" transform="matrix(0.283, -0.959, 0.959, 0.283, 0, 20.025)" fill="#0894fe"/></g><g transform="translate(5.768 6.095)"><g transform="translate(0 0.492)"><path d="M380.979,125.853a1.3,1.3,0,0,1,.039-.177l.128-.488c.12-.443.287-1.058.5-1.83l1.806-6.5.071.128-11.632-3.311c-.035.018.294-.163.154-.086v.007l0,.009-.005.019-.011.038-.022.076-.043.151-.087.3-.172.6q-.171.6-.34,1.184-.338,1.173-.662,2.3l-1.235,4.274-.078-.14,8.35,2.452,2.383.715.637.2a1.826,1.826,0,0,1,.225.078,1.226,1.226,0,0,1-.207-.046l-.623-.164-2.376-.649-8.452-2.364-.109-.03.031-.11,1.217-4.279.658-2.3.339-1.184.171-.6.087-.3.043-.151.022-.076.011-.038.005-.019,0-.009,0,0v0c-.139.077.19-.107.158-.087l11.62,3.354.1.029-.029.1-1.928,6.53-.542,1.793-.145.463A.685.685,0,0,1,380.979,125.853Z" transform="translate(-369.212 -113.434)" fill="#fafafa"/></g><g transform="translate(5.307)"><path d="M381.114,112.5a6.124,6.124,0,0,1,1.035.227c.651.166,1.574.415,2.671.719l.061.017.016.063.53,2.012.055.211-.21-.06-1.1-.314c-1.834-.526-3.494-1.016-4.7-1.385l-.153-.047.115-.106c.977-.9,1.636-1.414,1.682-1.337,0,0-.158.124-.428.379l-1.129,1.089-.037-.152c1.22.327,2.888.791,4.722,1.317l1.1.317-.154.15-.506-2.018.077.08c-1.091-.324-2.006-.6-2.646-.806A6.2,6.2,0,0,1,381.114,112.5Z" transform="translate(-379.317 -112.497)" fill="#fafafa"/></g><g transform="translate(4.23 3.755)"><path d="M382.43,124.147c-.022-.014.128-.213.275-.621a2.767,2.767,0,0,0,.021-1.787,2.668,2.668,0,1,0-2.469,3.487,2.774,2.774,0,0,0,1.679-.612c.336-.275.474-.482.494-.466s-.024.058-.09.155a2.119,2.119,0,0,1-.341.385,2.764,2.764,0,0,1-1.736.716,2.867,2.867,0,0,1-3-2.813,2.874,2.874,0,0,1,1.982-2.8,2.866,2.866,0,0,1,3.647,1.892,2.761,2.761,0,0,1-.1,1.876,2.112,2.112,0,0,1-.25.45C382.477,124.105,382.437,124.151,382.43,124.147Z" transform="translate(-377.266 -119.646)" fill="#fafafa"/></g></g></g><g transform="translate(0 31.095)"><g transform="translate(0 0)"><path d="M3.346,0H25.912a3.346,3.346,0,0,1,3.346,3.346V25.912a3.346,3.346,0,0,1-3.346,3.346H3.346A3.346,3.346,0,0,1,0,25.912V3.346A3.346,3.346,0,0,1,3.346,0Z" transform="translate(0 6.124) rotate(-12.082)" fill="#0894fe"/><g transform="translate(6.897 10.136)"><path d="M95.155,179.93a3.572,3.572,0,0,1,.517.223l1.469.7.06.029-.033.061-1.907,3.521-.035-.139,7.164,4.6-.21.049,1.921-3.293.061-.1.113.029a11.2,11.2,0,0,1,2.633,1.014,5.007,5.007,0,0,1,2.158,2.025,2.66,2.66,0,0,1,.235.749l.056.394-.033.4a2.642,2.642,0,0,1-.176.771,3.55,3.55,0,0,1-.3.725,4.756,4.756,0,0,1-2.285,2.171,5.169,5.169,0,0,1-3.139.326,5.674,5.674,0,0,1-1.472-.514c-.466-.24-.867-.526-1.287-.786l-4.8-3.066-4.336-2.78-1-.642a5.8,5.8,0,0,1-.94-.691,2.845,2.845,0,0,1-.933-1.984,4.169,4.169,0,0,1,1.57-3.32,4.481,4.481,0,0,1,2.615-1,4.432,4.432,0,0,1,1.755.266,3.66,3.66,0,0,1,.421.189.533.533,0,0,1,.136.078,5.251,5.251,0,0,0-2.3-.4,4.389,4.389,0,0,0-2.5,1.01A3.976,3.976,0,0,0,88.9,183.7a2.591,2.591,0,0,0,.871,1.8,5.628,5.628,0,0,0,.909.653l1,.634,4.352,2.752,4.8,3.047c.418.258.832.549,1.261.768a5.363,5.363,0,0,0,1.384.482,4.826,4.826,0,0,0,2.928-.3,4.412,4.412,0,0,0,2.121-2.015,3.245,3.245,0,0,0,.284-.674,2.332,2.332,0,0,0,.16-.694l.032-.351-.05-.345a2.319,2.319,0,0,0-.2-.661,4.7,4.7,0,0,0-2.011-1.882,10.955,10.955,0,0,0-2.544-.992l.174-.075-1.94,3.282-.08.136-.13-.086-7.116-4.67-.083-.054.048-.085,1.978-3.482.027.089-1.44-.759A3.586,3.586,0,0,1,95.155,179.93Z" transform="translate(-88.656 -179.393)" fill="#fafafa"/></g></g><g transform="translate(18.02 9.725)"><g transform="translate(1.935)"><path d="M114.447,183.322a21.165,21.165,0,0,1-.91-4.712,21.1,21.1,0,0,1,.91,4.712Z" transform="translate(-113.518 -178.61)" fill="#fafafa"/></g><g transform="translate(0 1.827)"><path d="M114.653,182.106a11.133,11.133,0,0,1-2.372.643,11.593,11.593,0,0,1-2.447.38,11.05,11.05,0,0,1,2.372-.643A11.261,11.261,0,0,1,114.653,182.106Z" transform="translate(-109.833 -182.089)" fill="#fafafa"/></g></g></g></g><g transform="translate(178.795 68.841)"><g transform="translate(0)"><g transform="translate(0.137 0.137)"><rect width="33.229" height="48.724" fill="#f5f5f5"/></g><path d="M308.751,137.562s0-.083-.007-.239,0-.391-.007-.691c0-.613-.008-1.508-.015-2.669-.007-2.335-.019-5.733-.034-10.029-.015-8.586-.036-20.751-.061-35.1l.125.125-33.225.012h0l.137-.137c-.01,18.327-.019,35.246-.027,48.724l-.11-.11,24.169.058,6.691.028,1.759.012c.4,0,.609.012.609.012s-.195.008-.586.012l-1.738.012-6.667.028-24.238.058h-.11v-.11c-.008-13.477-.017-30.4-.027-48.724V88.7h.141l33.225.012h.125v.125c-.025,14.379-.047,26.572-.061,35.178-.015,4.283-.026,7.673-.034,10-.007,1.15-.012,2.037-.015,2.645,0,.293-.006.517-.007.676S308.751,137.562,308.751,137.562Z" transform="translate(-275.385 -88.701)" fill="#263238"/><g transform="translate(0.538 4.408)"><g transform="translate(0.096 29.963)"><path d="M279.232,166.775a4.58,4.58,0,0,1,.037-8.314,1.955,1.955,0,0,0,.8-.5c.295-.389.179-.935.192-1.423a2.559,2.559,0,0,1,2.467-2.4l7.482,2.941v7.884Z" transform="translate(-276.592 -154.141)" fill="#263238"/></g><g transform="translate(0 38.46)"><path d="M276.41,176.182a29.688,29.688,0,0,1,12.378-5.405,59.291,59.291,0,0,1,14.452,0,21.067,21.067,0,0,1,5.959,2.062l.039,3.454-7.359-.026Z" transform="translate(-276.41 -170.319)" fill="#0894fe"/></g><g transform="translate(1.072)"><path d="M307.066,105.031c-.714-1.98-4.1-3.679-5.958-4.667-2.779-1.477-5.3-1.078-6.807.368-2.895-2.269-6.676-4.413-10.2-3.366s-6.288,4.784-5.52,8.381c.453,2.119,1.993,3.982,1.979,6.148a11.281,11.281,0,0,1-1.324,4.193,5.485,5.485,0,0,0-.4,4.284c.559,1.256,1.874,2.007,2.608,3.169a16.843,16.843,0,0,1,1.163,3.14c1.471,3.879,6.176,5.924,10.242,5.1s7.367-4.016,9.175-7.75,2.307-7.967,2.393-12.115" transform="translate(-278.451 -97.093)" fill="#263238"/></g><g transform="translate(6.274 7.068)"><path d="M308.95,143.576l-.142-29.216-12.287-3.745a6.714,6.714,0,0,0-7.6,6.005c-.438,4.53-.81,10.223-.371,13.675.856,6.737,5.968,7.75,5.968,7.75s-.042,2.5-.1,5.426a7.228,7.228,0,0,0,1.4,4.42H307.55A7.221,7.221,0,0,0,308.95,143.576Z" transform="translate(-288.356 -110.551)" fill="#f2f2f2"/></g><g transform="translate(2.038 0.053)"><g transform="translate(6 13.163)"><g transform="translate(4.369 19.176)"><path d="M300.064,160.936a17.456,17.456,0,0,0,9.059-2.17s-2.4,4.79-9.09,3.954Z" transform="translate(-300.033 -158.766)" fill="#c4c9ce"/></g><g transform="translate(8.557)"><path d="M308.009,122.9c.083.254,1.011.164,2.093.328,1.085.143,1.95.488,2.1.267.068-.106-.078-.347-.424-.6a3.679,3.679,0,0,0-3.195-.453C308.181,122.584,307.974,122.776,308.009,122.9Z" transform="translate(-308.006 -122.256)" fill="#263238"/></g><g transform="translate(0 0.241)"><path d="M291.736,123.625c.156.215.8.017,1.567.03.767-.013,1.411.185,1.568-.03.068-.105-.027-.318-.3-.526a2.269,2.269,0,0,0-2.525,0C291.762,123.306,291.667,123.52,291.736,123.625Z" transform="translate(-291.714 -122.715)" fill="#263238"/></g></g><g transform="translate(14.319 21.106)"><path d="M307.552,137.632a.245.245,0,1,0,.237-.253A.245.245,0,0,0,307.552,137.632Z" transform="translate(-307.552 -137.379)" fill="#c4c9ce"/></g><g transform="translate(7.347 20.137)"><path d="M294.279,135.787a.245.245,0,1,0,.237-.253A.246.246,0,0,0,294.279,135.787Z" transform="translate(-294.279 -135.534)" fill="#c4c9ce"/></g><g transform="translate(6.015 20.82)"><path d="M291.743,137.088a.245.245,0,1,0,.237-.253A.245.245,0,0,0,291.743,137.088Z" transform="translate(-291.743 -136.835)" fill="#c4c9ce"/></g><g transform="translate(5.569 19.809)"><path d="M290.893,135.163a.245.245,0,1,0,.237-.253A.245.245,0,0,0,290.893,135.163Z" transform="translate(-290.893 -134.91)" fill="#c4c9ce"/></g><g transform="translate(15.476 22.151)"><path d="M309.756,139.623a.245.245,0,1,0,.237-.254A.246.246,0,0,0,309.756,139.623Z" transform="translate(-309.756 -139.369)" fill="#c4c9ce"/></g><g transform="translate(16.362 21.135)"><path d="M311.443,137.687a.245.245,0,1,0,.237-.253A.246.246,0,0,0,311.443,137.687Z" transform="translate(-311.443 -137.434)" fill="#c4c9ce"/></g><g transform="translate(12.317 3.923)"><path d="M303.741,106.792a11.605,11.605,0,0,1,12.392-.628c3.806,2.244,5.881,5.477,6.081,10.817v6.8c-.2,3.1.462,4.893-1.062,5.418-2.078.715-3.685,6.367-5.476,5.973-2.209-1.717-2.244-2.721-2.324-6.233-.086-3.778-1.219-8.268.261-10.7a14.144,14.144,0,0,1-9.528-11.441" transform="translate(-303.741 -104.664)" fill="#263238"/></g><g transform="translate(5.456)"><path d="M290.678,97.2c0,.035.578.035,1.477.243a6.507,6.507,0,0,1,.725.206c.261.076.526.194.808.308a8.958,8.958,0,0,1,3.157,2.341,8.593,8.593,0,0,1,.529.683,6.586,6.586,0,0,1,.408.634c.46.8.628,1.355.661,1.343a2.075,2.075,0,0,0-.115-.388,3.435,3.435,0,0,0-.174-.442,5.587,5.587,0,0,0-.277-.566,6.2,6.2,0,0,0-.4-.653,8.145,8.145,0,0,0-.527-.7,8.645,8.645,0,0,0-3.208-2.379,8.3,8.3,0,0,0-.826-.3,6.138,6.138,0,0,0-.74-.191,5.352,5.352,0,0,0-.622-.1,3.343,3.343,0,0,0-.474-.039A2.045,2.045,0,0,0,290.678,97.2Z" transform="translate(-290.678 -97.195)" fill="#455a64"/></g><g transform="translate(0 5.473)"><path d="M281.845,127.778s-.014-.022-.046-.058l-.146-.159c-.128-.14-.32-.344-.54-.627a3.631,3.631,0,0,1-.631-1.128,2.034,2.034,0,0,1-.088-.792,2.238,2.238,0,0,1,.275-.849,15.017,15.017,0,0,1,1.266-1.672,9.524,9.524,0,0,0,1.835-4.727,19.7,19.7,0,0,0-.024-2.879,10.037,10.037,0,0,1,.166-2.836,5.664,5.664,0,0,1,1.2-2.325,5.732,5.732,0,0,1,1.873-1.459,5.443,5.443,0,0,1,2-.533,5.949,5.949,0,0,1,2.948.546,6.429,6.429,0,0,1,.722.4l.18.119a.26.26,0,0,0,.064.036,4.207,4.207,0,0,0-.94-.611,5.873,5.873,0,0,0-2.981-.6,5.512,5.512,0,0,0-2.052.526,5.928,5.928,0,0,0-3.166,3.863,10.092,10.092,0,0,0-.174,2.878,19.822,19.822,0,0,1,.028,2.858,9.466,9.466,0,0,1-1.787,4.666,14.584,14.584,0,0,0-1.259,1.7,2.312,2.312,0,0,0-.276.892,2.114,2.114,0,0,0,.1.827,3.62,3.62,0,0,0,.666,1.14,7.577,7.577,0,0,0,.565.611l.157.149A.306.306,0,0,0,281.845,127.778Z" transform="translate(-280.29 -107.615)" fill="#455a64"/></g><g transform="translate(6.015 17.56)"><path d="M291.755,131.5c.1.114.763-.353,1.685-.333s1.588.5,1.691.384c.05-.049-.054-.253-.345-.473a2.349,2.349,0,0,0-1.351-.446,2.258,2.258,0,0,0-1.344.4C291.8,131.244,291.7,131.444,291.755,131.5Z" transform="translate(-291.742 -130.628)" fill="#263238"/></g><g transform="translate(15.434 17.711)"><path d="M309.688,131.783c.1.114.764-.353,1.685-.333s1.589.5,1.691.384c.05-.049-.054-.253-.345-.473a2.349,2.349,0,0,0-1.35-.446,2.26,2.26,0,0,0-1.344.4C309.737,131.532,309.637,131.732,309.688,131.783Z" transform="translate(-309.675 -130.916)" fill="#263238"/></g><g transform="translate(9.629 16.469)"><path d="M300.959,136.225a6.1,6.1,0,0,0-1.493-.3c-.235-.029-.457-.08-.493-.242a1.2,1.2,0,0,1,.171-.695l.732-1.779a30.823,30.823,0,0,0,1.656-4.659,30.917,30.917,0,0,0-2.027,4.515q-.368.938-.7,1.791a1.361,1.361,0,0,0-.14.922.591.591,0,0,0,.38.352,1.616,1.616,0,0,0,.4.064A5.99,5.99,0,0,0,300.959,136.225Z" transform="translate(-298.622 -128.55)" fill="#263238"/></g><g transform="translate(12.215 25.773)"><path d="M303.643,146.865a1.662,1.662,0,0,1,1.5-.587,1.517,1.517,0,0,1,1.036.582.962.962,0,0,1,.051,1.1,1.116,1.116,0,0,1-1.215.282,3.493,3.493,0,0,1-1.165-.727,1.02,1.02,0,0,1-.258-.278.308.308,0,0,1,.008-.343" transform="translate(-303.547 -146.264)" fill="#c4c9ce"/></g><g transform="translate(11.679 24.835)"><path d="M305.513,144.479c-.15-.012-.171.99-1.042,1.683s-1.934.563-1.944.7c-.015.063.234.2.684.22a2.49,2.49,0,0,0,1.622-.529,2.174,2.174,0,0,0,.81-1.412C305.688,144.725,305.582,144.475,305.513,144.479Z" transform="translate(-302.526 -144.479)" fill="#263238"/></g></g><g transform="translate(15.741 6.178)"><path d="M323.13,117.1a3.716,3.716,0,0,1-.769.161,13.978,13.978,0,0,1-2.139.148,15.637,15.637,0,0,1-12.31-6.06,13.942,13.942,0,0,1-1.188-1.786,3.689,3.689,0,0,1-.342-.707,5.165,5.165,0,0,1,.433.653,17.8,17.8,0,0,0,1.247,1.72,16.2,16.2,0,0,0,12.162,5.987,17.884,17.884,0,0,0,2.124-.06A5.093,5.093,0,0,1,323.13,117.1Z" transform="translate(-306.381 -108.856)" fill="#455a64"/></g><g transform="translate(15.421 5.882)"><path d="M321,131.762c-.02-.017.3-.351.75-1.038a8.51,8.51,0,0,0,1.253-3.21,7.52,7.52,0,0,0-.954-4.929,8.18,8.18,0,0,0-1.954-2.278,9.878,9.878,0,0,0-2.866-1.5c-1.055-.379-2.12-.672-3.125-1.047a13.2,13.2,0,0,1-2.759-1.4,13.646,13.646,0,0,1-3.692-3.673,12.892,12.892,0,0,1-1.561-3.147,8.2,8.2,0,0,1-.259-.92,1.557,1.557,0,0,1-.062-.327c.032-.008.128.441.422,1.212a13.756,13.756,0,0,0,5.291,6.645A13.117,13.117,0,0,0,314.2,117.5c.992.367,2.055.657,3.125,1.041a10.042,10.042,0,0,1,2.94,1.55,8.362,8.362,0,0,1,2.006,2.363,7.644,7.644,0,0,1,.925,5.086,8.239,8.239,0,0,1-1.356,3.238,7.8,7.8,0,0,1-.6.746A1.482,1.482,0,0,1,321,131.762Z" transform="translate(-305.77 -108.292)" fill="#455a64"/></g><g transform="translate(5.32 29.907)"><path d="M293.658,158.69a.884.884,0,0,1-.355.112,4.34,4.34,0,0,1-1.011.071,6.544,6.544,0,0,1-3.161-1.025,5.924,5.924,0,0,1-2.2-2.49,4.913,4.913,0,0,1-.337-.954.9.9,0,0,1-.047-.369c.046-.013.164.5.557,1.236a6.3,6.3,0,0,0,2.172,2.345,7.069,7.069,0,0,0,3.028,1.064C293.133,158.759,293.649,158.642,293.658,158.69Z" transform="translate(-286.539 -154.035)" fill="#455a64"/></g></g></g></g><g transform="translate(118.384 94.688)"><g transform="translate(0.277)"><g transform="translate(59.364 30.891)"><path d="M294.189,206.988c-1.39-2.081-2.291-10.671-4.094-10.189-2.3.613.93,9.735,1.154,10.568.219.81-.98,1.156-1.142.393-.234-1.1-2.807-11.81-5.051-10.99-1.244.454-.443,2.728-.443,2.728s3.644,10.421,2.571,10.773c-1.089.358-3.169-5.735-3.861-7.889-.663-2.066-1.772-2.653-2.538-1.687-.818,1.032,1.16,7.2,1.792,9.281s2.466,7.756-.728,5.633-6.434-2.584-7.384-2.109-.6,1.969.574,2.165a14.3,14.3,0,0,1,3.561,1.507,13.7,13.7,0,0,1,2.444,1.907,11.955,11.955,0,0,1,2.432,3.117,7.432,7.432,0,0,0,4.893,3.631h0l.96,3.922,10.923-4.063-1.818-7.42a72.844,72.844,0,0,1-1.831-13.224c-.527-5.6-1.26-5.573-1.891-5.365C293.317,200.133,295.545,209.019,294.189,206.988Z" transform="translate(-273.919 -196.726)" fill="#f2f2f2"/><g transform="translate(13.878 17.481)"><path d="M308.728,230.013a12.431,12.431,0,0,0-1.432.807,6.164,6.164,0,0,0-2.262,3.127,5.9,5.9,0,0,0-.23,1.173l-.02.189-.169-.077a9.584,9.584,0,0,0-3.014-.806c-.782-.077-1.258-.05-1.26-.089a3.878,3.878,0,0,1,1.273-.084,8.649,8.649,0,0,1,3.111.735l-.187.112a5.858,5.858,0,0,1,.234-1.234,6.093,6.093,0,0,1,1.058-1.977,6,6,0,0,1,1.356-1.228,5.215,5.215,0,0,1,1.1-.547A1.374,1.374,0,0,1,308.728,230.013Z" transform="translate(-300.342 -230.008)" fill="#c4c9ce"/></g><g transform="translate(17.534 25.778)"><path d="M312.649,245.81a9.934,9.934,0,0,1-5.347,2.221c-.016-.081,1.261-.348,2.734-.965S312.6,245.741,312.649,245.81Z" transform="translate(-307.302 -245.805)" fill="#c4c9ce"/></g></g><g transform="translate(0 52.879)"><path d="M246.319,297.171a11.878,11.878,0,0,1-6.528-2.753l-17.619-14.9.156,17.173,3.49.251-.981,12.762H170.284l-.022-.3a19.331,19.331,0,0,1-6.152-11.865c-1.327-8.5-1.82-22.351-3.006-32.14-.835-6.89.684-15.814,6.813-19.068l4.742-1.868h0l14.907-5.87,19.148.881,12.787,3.588c3.546,1.348,6.6,5.594,8.783,8.726l10.656,14.826c-.118-2.419-4.526-17.033-4.816-17.689l13.043-5.371s13.44,29.869,11.629,42.771C257.292,297.055,246.319,297.171,246.319,297.171Z" transform="translate(-160.894 -238.59)" fill="#263238"/><g transform="translate(0.528 2.441)"><g transform="translate(59.48 21.003)"><path d="M275.146,294.408c0-.076,1.192.079,3.059-.19a13.581,13.581,0,0,0,6.522-2.781,11.1,11.1,0,0,0,3.66-5.528,22.473,22.473,0,0,0,.462-2.683,2.115,2.115,0,0,1,.077.737,8.45,8.45,0,0,1-.236,2.007,10.674,10.674,0,0,1-3.666,5.752,13.177,13.177,0,0,1-6.774,2.767,12.116,12.116,0,0,1-2.28.046A2.952,2.952,0,0,1,275.146,294.408Z" transform="translate(-275.146 -283.226)" fill="#fff"/><g transform="translate(1.263 2.608)"><path d="M277.7,320.49c.127,0,.278-7.228.336-16.146s0-16.151-.125-16.153-.278,7.226-.336,16.147S277.572,320.488,277.7,320.49Z" transform="translate(-277.551 -288.192)" fill="#455a64"/></g></g><g transform="translate(14.996 53.482)"><path d="M190.458,352.811a4.817,4.817,0,0,1,.6-1.744,11.258,11.258,0,0,1,6.64-5.671,4.817,4.817,0,0,1,1.816-.316c.014.073-.674.21-1.714.608a12.736,12.736,0,0,0-6.47,5.525C190.771,352.178,190.528,352.836,190.458,352.811Z" transform="translate(-190.45 -345.063)" fill="#455a64"/></g><g transform="translate(21.441 4.942)"><path d="M202.722,285.07a.9.9,0,0,1,.208.092l.586.307a20.346,20.346,0,0,0,2.335.991,18.5,18.5,0,0,0,9.174.784,18.12,18.12,0,0,0,11.4-7.085,15.047,15.047,0,0,0,2.986-7.415,10.109,10.109,0,0,0-.437-4.2,8.521,8.521,0,0,0-2.36-3.606,7.135,7.135,0,0,0-3.842-1.867,4.578,4.578,0,0,0-3.852,1.081,2.478,2.478,0,0,0-.751,1.743,3.044,3.044,0,0,0,.632,1.8,4.916,4.916,0,0,0,3.33,1.737,13.483,13.483,0,0,0,7.154-1.024,13.276,13.276,0,0,0,7.536-8.425,14.266,14.266,0,0,0,.623-3.938,14.937,14.937,0,0,0-.184-2.525l-.12-.65a.875.875,0,0,1-.028-.225,10.562,10.562,0,0,1,.5,3.4,14.02,14.02,0,0,1-.558,4.007,13.72,13.72,0,0,1-2.461,4.76,13.987,13.987,0,0,1-12.525,5.019,5.309,5.309,0,0,1-3.605-1.886,3.456,3.456,0,0,1-.721-2.049,2.9,2.9,0,0,1,.871-2.045,5,5,0,0,1,4.213-1.21,7.559,7.559,0,0,1,4.078,1.974,8.937,8.937,0,0,1,2.479,3.792,10.518,10.518,0,0,1,.451,4.374,15.405,15.405,0,0,1-3.089,7.615,18.084,18.084,0,0,1-20.959,6.221A13.292,13.292,0,0,1,202.722,285.07Z" transform="translate(-202.722 -252.647)" fill="#fff"/></g><g transform="translate(0 24.137)"><path d="M161.9,294.05a2.948,2.948,0,0,1,.538-.67,12.126,12.126,0,0,1,1.768-1.538,14.827,14.827,0,0,1,7.241-2.566,13.948,13.948,0,0,1,4.267.18A13.077,13.077,0,0,1,179,290.611a14.659,14.659,0,0,1,2,1.217,3,3,0,0,1,.657.553c-.046.069-1.024-.671-2.79-1.491a13.733,13.733,0,0,0-7.376-1.179,15.565,15.565,0,0,0-7.111,2.386C162.763,293.176,161.961,294.112,161.9,294.05Z" transform="translate(-161.899 -289.191)" fill="#fff"/></g><g transform="translate(5.235)"><path d="M171.868,249.794a13.366,13.366,0,0,0,2.649,1.926,9.5,9.5,0,0,0,3.372.988,8.441,8.441,0,0,0,7.622-3.154,9.506,9.506,0,0,0,1.688-3.083,13.344,13.344,0,0,0,.513-3.234,2.846,2.846,0,0,1,.109.892,8.073,8.073,0,0,1-.326,2.433,9.326,9.326,0,0,1-1.669,3.245,8.619,8.619,0,0,1-7.981,3.3,9.329,9.329,0,0,1-3.473-1.117,8.1,8.1,0,0,1-1.951-1.491A2.851,2.851,0,0,1,171.868,249.794Z" transform="translate(-171.867 -243.237)" fill="#fff"/></g><g transform="translate(33.09 39.578)"><path d="M224.9,331.052a3.259,3.259,0,0,1,.068-.62,6.853,6.853,0,0,1,.58-1.694,9.344,9.344,0,0,1,4.9-4.253,14.337,14.337,0,0,1,9.623-.345c1.73.515,3.716,1.15,5.014,2.84a3.039,3.039,0,0,1,.369,3.078,4.889,4.889,0,0,1-2.333,2.2,7.418,7.418,0,0,1-3.1.767,4.515,4.515,0,0,1-2.975-.923,3.8,3.8,0,0,1-1.332-2.7,6.759,6.759,0,0,1,.445-2.835,12.725,12.725,0,0,1,6.747-6.829,13.231,13.231,0,0,1,6.438-1.106,9.082,9.082,0,0,1,2.352.495c-.013.057-.833-.22-2.365-.325a13.489,13.489,0,0,0-6.3,1.218,13.18,13.18,0,0,0-3.673,2.493,11.768,11.768,0,0,0-2.821,4.191,6.382,6.382,0,0,0-.409,2.663,3.383,3.383,0,0,0,1.188,2.4,4.1,4.1,0,0,0,2.7.818,7,7,0,0,0,2.911-.723,4.478,4.478,0,0,0,2.131-1.989,2.605,2.605,0,0,0-.32-2.649,6.065,6.065,0,0,0-2.19-1.738,15.652,15.652,0,0,0-2.586-.964,14.137,14.137,0,0,0-9.395.243,9.333,9.333,0,0,0-4.867,4.045A9.521,9.521,0,0,0,224.9,331.052Z" transform="translate(-224.9 -318.591)" fill="#fff"/></g><g transform="translate(1.359 43.442)"><path d="M164.487,328.087a1.539,1.539,0,0,1,.395-.158c.264-.087.656-.207,1.169-.338a14.1,14.1,0,0,1,4.459-.453,9.3,9.3,0,0,1,3.031.75,6.994,6.994,0,0,1,2.828,2.219,5.815,5.815,0,0,1,1.1,3.816,4.647,4.647,0,0,1-.649,2.047A3.246,3.246,0,0,1,175.1,337.4a2.262,2.262,0,0,1-2.211-.437,2.955,2.955,0,0,1-.763-2.039,8.721,8.721,0,0,1,.772-3.894,8.508,8.508,0,0,1,4.774-4.53,8.655,8.655,0,0,1,4.451-.441,7.335,7.335,0,0,1,1.184.3,1.545,1.545,0,0,1,.39.171c-.013.044-.561-.174-1.6-.3a8.865,8.865,0,0,0-4.316.561,8.268,8.268,0,0,0-4.516,4.405,8.389,8.389,0,0,0-.712,3.708,2.551,2.551,0,0,0,.634,1.745,1.834,1.834,0,0,0,1.779.336,2.83,2.83,0,0,0,1.476-1.245,4.238,4.238,0,0,0,.592-1.855,5.438,5.438,0,0,0-1-3.545,6.685,6.685,0,0,0-2.65-2.124,9.168,9.168,0,0,0-2.909-.772,15.115,15.115,0,0,0-4.394.311C165.06,327.968,164.5,328.12,164.487,328.087Z" transform="translate(-164.487 -325.948)" fill="#fff"/></g><g transform="translate(76.528 21.003)"><path d="M313.58,310.312a1.126,1.126,0,0,1-.221-.186c-.142-.126-.336-.327-.579-.592a12.616,12.616,0,0,1-1.716-2.516,17.461,17.461,0,0,1-1.53-4.251,29.943,29.943,0,0,1-.643-5.491c-.08-1.958-.014-3.829-.063-5.513a38.488,38.488,0,0,0-.467-4.461c-.2-1.263-.407-2.279-.549-2.981-.066-.326-.12-.594-.163-.809a1.182,1.182,0,0,1-.04-.286,1.126,1.126,0,0,1,.094.274c.054.181.125.45.213.8.175.7.408,1.708.636,2.972a35.331,35.331,0,0,1,.528,4.482c.064,1.7,0,3.562.085,5.513a31.014,31.014,0,0,0,.616,5.446,17.973,17.973,0,0,0,1.456,4.218,13.88,13.88,0,0,0,1.626,2.535C313.313,310.016,313.6,310.293,313.58,310.312Z" transform="translate(-307.604 -283.226)" fill="#455a64"/></g></g><g transform="translate(74.389 47.332)"><path d="M308.531,328.712a19.983,19.983,0,0,0-6,4.774,3.7,3.7,0,0,1,.637-.95,12.795,12.795,0,0,1,4.3-3.418A3.7,3.7,0,0,1,308.531,328.712Z" transform="translate(-302.525 -328.708)" fill="#fff"/></g><g transform="translate(79.177 31.436)"><path d="M328.3,298.445a4.1,4.1,0,0,1-.717.269c-.465.157-1.14.384-1.958.7a30.6,30.6,0,0,0-6.093,3.089,52.192,52.192,0,0,0-5.326,4.313,5.333,5.333,0,0,1-1.8,1.081,2.012,2.012,0,0,1-.567.091.564.564,0,0,1-.2-.016,6.921,6.921,0,0,0,.734-.177,5.707,5.707,0,0,0,1.706-1.128,43.558,43.558,0,0,1,5.3-4.393,27.6,27.6,0,0,1,6.177-3.043c.832-.294,1.517-.494,1.994-.62A4.084,4.084,0,0,1,328.3,298.445Z" transform="translate(-311.642 -298.442)" fill="#fff"/></g><g transform="translate(76.417 15.302)"><path d="M320.486,267.738a2.3,2.3,0,0,1-.563.106l-1.538.23c-1.3.2-3.084.517-5.043.934s-3.714.878-4.958,1.289-1.975.762-2,.722a2.328,2.328,0,0,1,.493-.295,13.889,13.889,0,0,1,1.44-.61,38.8,38.8,0,0,1,4.963-1.373c1.967-.418,3.765-.706,5.074-.858.654-.078,1.186-.123,1.554-.144A2.309,2.309,0,0,1,320.486,267.738Z" transform="translate(-306.387 -267.724)" fill="#fff"/></g></g><g transform="translate(15.969)"><path d="M229.858,140.288c-3.322-.894-6.649,2.164-10.044,1.618-2.063-.332-3.665-1.916-5.522-2.872a10.524,10.524,0,0,0-9.375-.038c-2.736,1.507-4.479,3.077-4.753,6.189-2.583-1.368-6.7,1.964-8.037,5.09s-.866,6.3.062,9.565a44.872,44.872,0,0,0,7.949,15.53c.322.406.828.851,1.29.615a1.133,1.133,0,0,0,.456-.925,37.557,37.557,0,0,0-.469-9.131,22.71,22.71,0,0,1,.264-9.1c.862-2.932,3.041-5.653,6.018-6.347a9.691,9.691,0,0,1,6.527,1.168c2,1.038,3.784,2.457,5.7,3.651a12.46,12.46,0,0,0,6.313,2.2,5.913,5.913,0,0,0,5.531-3.2c.891-2.074-.285-4.938-2.507-5.331a4.437,4.437,0,0,0,.6-8.687Z" transform="translate(-191.297 -137.912)" fill="#263238"/><g transform="translate(5.392 4.299)"><path d="M201.833,164.494l4.422,33.984a10.2,10.2,0,0,0,11.922,8.717h0a10.2,10.2,0,0,0,8.294-11.363c-.336-2.557-.61-4.691-.627-4.957,0,0,8.545-1.94,8.056-10.583-.237-4.177-1.424-12.741-2.589-20.477a16.126,16.126,0,0,0-17.061-13.678l-.834.058C204.468,147.34,200.44,155.58,201.833,164.494Z" transform="translate(-201.563 -146.098)" fill="#f2f2f2"/><g transform="translate(12.806 42.228)"><path d="M237.425,228.921a20.129,20.129,0,0,1-11.48-2.423s3.09,6.032,11.655,4.659Z" transform="translate(-225.945 -226.498)" fill="#f2f2f2"/></g><g transform="translate(9.123 13.053)"><g transform="translate(1.153 3.893)"><g transform="translate(13.029)"><g transform="translate(0.762 1.942)"><path d="M249.843,183.093a1.236,1.236,0,0,1-1.1,1.326,1.183,1.183,0,0,1-1.348-1.024,1.237,1.237,0,0,1,1.1-1.327A1.184,1.184,0,0,1,249.843,183.093Z" transform="translate(-247.385 -182.058)" fill="#263238"/></g><path d="M250.815,179.5c-.142.171-1.124-.456-2.451-.36-1.327.076-2.254.826-2.409.673-.076-.067.06-.368.463-.706a3.393,3.393,0,0,1,1.915-.738,3.255,3.255,0,0,1,1.964.488C250.727,179.14,250.885,179.422,250.815,179.5Z" transform="translate(-245.935 -178.361)" fill="#263238"/></g><g transform="translate(0 1.148)"><g transform="translate(1.02 1.657)"><path d="M225.528,184.737a1.237,1.237,0,0,1-1.1,1.327,1.183,1.183,0,0,1-1.348-1.024,1.237,1.237,0,0,1,1.1-1.327A1.183,1.183,0,0,1,225.528,184.737Z" transform="translate(-223.07 -183.702)" fill="#263238"/></g><path d="M226.008,181.685c-.142.171-1.126-.455-2.451-.36-1.327.076-2.254.826-2.409.673-.075-.067.059-.368.463-.706a3.392,3.392,0,0,1,1.914-.738,3.261,3.261,0,0,1,1.965.488C225.919,181.327,226.078,181.608,226.008,181.685Z" transform="translate(-221.128 -180.547)" fill="#263238"/></g><g transform="translate(8.994 0.779)"><path d="M239.635,190.862a8.786,8.786,0,0,1,2.129-.538c.337-.058.653-.148.694-.383a1.727,1.727,0,0,0-.3-.989l-1.18-2.512a44.461,44.461,0,0,1-2.717-6.595,44.481,44.481,0,0,1,3.241,6.36q.6,1.324,1.139,2.53a1.964,1.964,0,0,1,.268,1.318.853.853,0,0,1-.523.534,2.294,2.294,0,0,1-.57.12A8.647,8.647,0,0,1,239.635,190.862Z" transform="translate(-238.253 -179.845)" fill="#263238"/></g><g transform="translate(6.362 12.984)"><path d="M233.413,203.082c.215-.027.317,1.413,1.621,2.35s2.826.673,2.851.874c.026.089-.323.3-.97.366a3.6,3.6,0,0,1-2.375-.648,3.132,3.132,0,0,1-1.267-1.978C233.177,203.448,233.313,203.08,233.413,203.082Z" transform="translate(-233.241 -203.081)" fill="#263238"/></g></g><g transform="translate(0 0.123)"><path d="M224.95,172.015c-.106.37-1.443.29-2.987.586-1.55.264-2.775.807-3,.5-.1-.149.092-.5.576-.888a5.289,5.289,0,0,1,4.564-.825C224.687,171.576,224.994,171.84,224.95,172.015Z" transform="translate(-218.933 -171.183)" fill="#263238"/></g><g transform="translate(13.772)"><path d="M249.691,172.173c-.213.318-1.149.068-2.249.129-1.1.023-2.016.342-2.252.042-.1-.147.021-.459.408-.772a3.26,3.26,0,0,1,3.627-.138C249.635,171.717,249.784,172.019,249.691,172.173Z" transform="translate(-245.155 -170.95)" fill="#263238"/></g></g></g><g transform="translate(1.307 28.886)"><path d="M199.287,193.065c-.152-.054-6.055-1.346-5.459,4.546s6.388,4.078,6.381,3.908S199.287,193.065,199.287,193.065Z" transform="translate(-193.785 -192.909)" fill="#f2f2f2"/><g transform="translate(1.527 2.006)"><path d="M199.564,201.282c-.028-.016-.1.082-.261.18a1.035,1.035,0,0,1-.765.093,2.554,2.554,0,0,1-1.406-2.16,3.407,3.407,0,0,1,.139-1.5,1.193,1.193,0,0,1,.692-.866.526.526,0,0,1,.634.22c.1.157.07.278.1.285s.116-.111.044-.35a.661.661,0,0,0-.269-.346.781.781,0,0,0-.583-.092,1.45,1.45,0,0,0-.98,1.022,3.5,3.5,0,0,0-.19,1.678,2.678,2.678,0,0,0,1.755,2.392,1.105,1.105,0,0,0,.923-.251C199.568,201.425,199.585,201.291,199.564,201.282Z" transform="translate(-196.693 -196.728)" fill="#c4c9ce"/></g></g><g transform="translate(4.437 2.796)"><path d="M232.152,156.536A12.5,12.5,0,0,1,220.9,154.8c-2.224-1.636-4.021-4.085-6.71-4.713a7.031,7.031,0,0,0-5.314,1.1,13.583,13.583,0,0,0-3.808,4.019c1.971,4.274,1.189,9.251.367,13.885a2.351,2.351,0,0,1-.593,1.41,1.881,1.881,0,0,1-2.389-.358,7.308,7.308,0,0,1-1.867-3.739,24.347,24.347,0,0,1-.6-9.581,16.578,16.578,0,0,1,3.969-8.66,15.7,15.7,0,0,1,10.7-4.911,19.29,19.29,0,0,1,11.433,3.22A11.3,11.3,0,0,1,230,150.406" transform="translate(-199.744 -143.235)" fill="#263238"/></g><g transform="translate(9.912 2.96)"><path d="M241.441,144.874a1.261,1.261,0,0,1-.018.515,2.4,2.4,0,0,1-.741,1.274,3.768,3.768,0,0,1-2.156.889,6.29,6.29,0,0,1-1.471.01,3.141,3.141,0,0,1-1.553-.594,2.088,2.088,0,0,1-.853-1.616,1.838,1.838,0,0,1,1.15-1.594,2.275,2.275,0,0,1,1.053-.208,1.927,1.927,0,0,1,1.045.385,2.691,2.691,0,0,1,1.022,2,3.119,3.119,0,0,1-.781,2.231,4.747,4.747,0,0,1-2.056,1.361,7.792,7.792,0,0,1-5.083-.2A22.293,22.293,0,0,1,226.451,147a28.245,28.245,0,0,0-4.135-2.255,8.777,8.777,0,0,0-4.125-.707,8.4,8.4,0,0,0-3.47,1.151,10.474,10.474,0,0,0-3.671,3.831,13.61,13.61,0,0,0-.664,1.307,4.054,4.054,0,0,1-.216.465.449.449,0,0,1,.033-.127c.028-.082.066-.2.129-.361a11.086,11.086,0,0,1,.619-1.339,10.349,10.349,0,0,1,3.664-3.953,8.544,8.544,0,0,1,3.553-1.215,8.979,8.979,0,0,1,4.25.7,28.12,28.12,0,0,1,4.184,2.261,22.228,22.228,0,0,0,4.492,2.3,7.53,7.53,0,0,0,4.894.206,4.471,4.471,0,0,0,1.936-1.272,2.842,2.842,0,0,0,.725-2.033,2.431,2.431,0,0,0-.906-1.813,1.781,1.781,0,0,0-1.844-.162,1.606,1.606,0,0,0-1.024,1.375,1.877,1.877,0,0,0,.755,1.45,2.971,2.971,0,0,0,1.449.571,6.242,6.242,0,0,0,1.429.011,3.683,3.683,0,0,0,2.1-.81,2.419,2.419,0,0,0,.76-1.2A4.1,4.1,0,0,0,241.441,144.874Z" transform="translate(-210.168 -143.548)" fill="#455a64"/></g><g transform="translate(0.128 10.749)"><path d="M191.541,165.149a9.8,9.8,0,0,0,1.836.344,5.091,5.091,0,0,0,1.964-.342,8.518,8.518,0,0,0,2.14-1.219,6.912,6.912,0,0,0,2.388-3.7,14.217,14.217,0,0,0,.266-1.857,1.537,1.537,0,0,1,.066.509,5.857,5.857,0,0,1-.13,1.395,6.748,6.748,0,0,1-2.409,3.883,8.3,8.3,0,0,1-2.229,1.241,5.012,5.012,0,0,1-2.067.3,4.67,4.67,0,0,1-1.368-.316A1.511,1.511,0,0,1,191.541,165.149Z" transform="translate(-191.541 -158.377)" fill="#455a64"/></g><g transform="translate(0.681 14.93)"><path d="M192.594,173.185c0-.054.7.051,1.814-.088a8.118,8.118,0,0,0,6.576-5.03c.425-1.035.506-1.737.559-1.727a1.443,1.443,0,0,1-.029.495,6.771,6.771,0,0,1-.337,1.307,7.838,7.838,0,0,1-6.748,5.162,6.769,6.769,0,0,1-1.35-.017A1.438,1.438,0,0,1,192.594,173.185Z" transform="translate(-192.594 -166.339)" fill="#455a64"/></g><g transform="translate(16.338 29.164)"><path d="M222.594,193.753a.161.161,0,1,1,.1-.193A.153.153,0,0,1,222.594,193.753Z" transform="translate(-222.404 -193.438)" fill="#c4c9ce"/></g><g transform="translate(18.826 28.369)"><path d="M227.339,192.283a.189.189,0,1,1,.093-.216A.168.168,0,0,1,227.339,192.283Z" transform="translate(-227.141 -191.924)" fill="#c4c9ce"/></g><g transform="translate(20.531 28.096)"><path d="M230.584,191.877c-.079.016-.164-.077-.19-.207s.018-.248.1-.264.164.077.19.207S230.664,191.861,230.584,191.877Z" transform="translate(-230.387 -191.405)" fill="#c4c9ce"/></g><g transform="translate(17.732 30.796)"><path d="M225.21,196.734c-.081.006-.149-.032-.153-.084s.059-.1.14-.1.15.032.153.084S225.291,196.728,225.21,196.734Z" transform="translate(-225.057 -196.546)" fill="#c4c9ce"/></g><g transform="translate(20 29.953)"><path d="M229.549,195.272a.168.168,0,1,1,.119-.187A.158.158,0,0,1,229.549,195.272Z" transform="translate(-229.376 -194.941)" fill="#c4c9ce"/></g><g transform="translate(31.984 27.679)"><path d="M252.385,190.936a.167.167,0,1,1,.1-.2A.157.157,0,0,1,252.385,190.936Z" transform="translate(-252.193 -190.612)" fill="#c4c9ce"/></g><g transform="translate(33.714 27.36)"><path d="M255.665,190.37a.19.19,0,1,1,.114-.207A.17.17,0,0,1,255.665,190.37Z" transform="translate(-255.487 -190.004)" fill="#c4c9ce"/></g><g transform="translate(30.473 27.897)"><path d="M249.5,191.281a.13.13,0,1,1,.108-.163A.138.138,0,0,1,249.5,191.281Z" transform="translate(-249.316 -191.027)" fill="#c4c9ce"/></g><g transform="translate(31.822 29.476)"><path d="M252.115,194.348a.171.171,0,1,1,.051-.218A.159.159,0,0,1,252.115,194.348Z" transform="translate(-251.884 -194.033)" fill="#c4c9ce"/></g><g transform="translate(33.387 29.149)"><path d="M254.986,193.656a.125.125,0,1,1,.168-.092A.137.137,0,0,1,254.986,193.656Z" transform="translate(-254.864 -193.41)" fill="#c4c9ce"/></g></g><g transform="translate(63.78 109.334)"><path d="M283.33,349.615l-1,11.106,5.245-.02c.139,0,2.28-.035,4.641-.075a32.612,32.612,0,0,0,5.324.142c.148-.016.236-.034.247-.056a4.258,4.258,0,0,0,.808-.2h.023l0-.007c.475-.173.963-.479.887-1-.229-1.592-1.176-1.721-1.176-1.721l-.475-.033-.039-.139c.721,0,1.326-.018,1.647-.052.148-.015.236-.034.247-.055,0,0,1.859-.221,1.717-1.2-.23-1.592-1.177-1.721-1.177-1.721s-.642-.046-1.531-.1c.744,0,1.373-.016,1.7-.051.148-.016.236-.035.247-.056,0,0,1.859-.221,1.717-1.2-.23-1.592-1.176-1.72-1.176-1.72s-.518-.037-1.266-.086c.6,0,1.1-.022,1.38-.052.148-.015.236-.034.247-.055,0,0,1.859-.221,1.717-1.2-.229-1.592-1.176-1.721-1.176-1.721s-2.926-.208-4.935-.292c0,0-2.279-2.055-3.177-1.96-1.341.141-9.141,3.021-9.141,3.021Z" transform="translate(-282.327 -346.078)" fill="#f2f2f2"/><g transform="translate(10.827 4.953)"><g transform="translate(0.017 6.328)"><path d="M302.974,367.659a10.528,10.528,0,0,0,2.6.25,9.939,9.939,0,0,0,2.572-.083,10.524,10.524,0,0,0-2.6-.25A9.945,9.945,0,0,0,302.974,367.659Z" transform="translate(-302.974 -367.556)" fill="#c4c9ce"/></g><g transform="translate(0 3.199)"><path d="M302.941,361.682a40.895,40.895,0,0,0,7.4.263,40.9,40.9,0,0,0-7.4-.263Z" transform="translate(-302.941 -361.6)" fill="#c4c9ce"/></g><g transform="translate(0.265)" opacity="0.78"><path d="M303.446,355.591a41.01,41.01,0,0,0,7.4.263,40.882,40.882,0,0,0-7.4-.263Z" transform="translate(-303.446 -355.509)" fill="#c4c9ce"/></g></g><g transform="translate(7.639 1.91)"><path d="M304.914,349.831a5.3,5.3,0,0,1-1.179.093l-2.84.093-2.841.1a5.363,5.363,0,0,1-1.182-.012,4.884,4.884,0,0,1,1.17-.181c.726-.073,1.731-.144,2.844-.182s2.12-.036,2.849-.013A4.894,4.894,0,0,1,304.914,349.831Z" transform="translate(-296.872 -349.714)" fill="#c4c9ce"/></g></g><g transform="translate(21.967 78.931)"><path d="M245.674,320.492a.92.92,0,0,1-.183,0l-.532-.026-2.048-.119-7.531-.462c-6.359-.388-15.144-.941-24.851-1.433l-5.2-.236-.125-.006,0-.13c-.081-2.107-.276-4.17-.429-6.143-.169-1.975-.331-3.87-.485-5.669-.318-3.591-.6-6.8-.84-9.479-.234-2.665-.423-4.809-.555-6.3-.059-.727-.106-1.3-.139-1.7-.013-.183-.023-.328-.03-.441a.076.076,0,1,1,.025,0c.014.112.032.257.055.439.044.4.106.971.186,1.7.151,1.494.367,3.636.636,6.3.255,2.681.559,5.885.9,9.475.16,1.8.329,3.693.5,5.668.159,1.979.357,4.025.442,6.165l-.13-.135,5.2.233c9.71.492,18.493,1.076,24.85,1.513l7.526.549,2.045.171.532.054A.873.873,0,0,1,245.674,320.492Z" transform="translate(-202.717 -288.192)" fill="#455a64"/></g><g transform="translate(27.193 109.437)"><path d="M213.7,360.812a2.709,2.709,0,0,1-.261-.567,5.158,5.158,0,0,1-.243-.692,8.57,8.57,0,0,1-.247-.94,9.493,9.493,0,0,1-.193-1.164,12.377,12.377,0,0,1-.091-1.351,13.34,13.34,0,0,1,1.356-6.011,12.776,12.776,0,0,1,.663-1.182,9.605,9.605,0,0,1,.674-.967,8.5,8.5,0,0,1,.627-.743,5.151,5.151,0,0,1,.516-.521,2.718,2.718,0,0,1,.48-.4c.04.042-.631.629-1.467,1.779a10.382,10.382,0,0,0-.636.971c-.226.351-.417.755-.629,1.172a13.917,13.917,0,0,0-1.332,5.9c.013.468.011.914.065,1.329a10.294,10.294,0,0,0,.157,1.149C213.4,359.973,213.757,360.792,213.7,360.812Z" transform="translate(-212.668 -346.273)" fill="#fff"/></g></g><g transform="translate(0 123.904)"><path d="M258.067,373.954c0,.076-21.873.137-48.848.137s-48.853-.061-48.853-.137,21.868-.137,48.853-.137S258.067,373.879,258.067,373.954Z" transform="translate(-160.366 -373.818)" fill="#263238"/></g></g><g transform="translate(113.102 46.871)"><path d="M241.674,46.915l-74.985-.044A16.334,16.334,0,0,0,150.346,63.2l-.037,187.989a16.334,16.334,0,0,0,16.325,16.337l74.985.045a16.334,16.334,0,0,0,16.343-16.331L258,63.252A16.334,16.334,0,0,0,241.674,46.915ZM252.991,248.5a11.439,11.439,0,0,1-11.446,11.437l-74.835-.044a11.44,11.44,0,0,1-11.433-11.442l.036-183.49A11.439,11.439,0,0,1,166.76,53.52l12.724.007,5.113,0a3.615,3.615,0,0,1,3.53,3.692V59.86a3.615,3.615,0,0,0,3.53,3.693l28.338.016a3.611,3.611,0,0,0,3.531-3.688V57.244a3.612,3.612,0,0,1,3.531-3.689l14.538.009a11.439,11.439,0,0,1,11.433,11.442Z" transform="translate(-150.309 -46.871)" fill="#263238"/><g transform="translate(4.987 171.862)"><g transform="translate(31.771)"><rect width="38.909" height="17.32" fill="#263238"/></g><g transform="translate(0 0)"><path d="M257.5,374.085H224.036c0,7.377-6.276,13.379-13.99,13.379s-13.99-6-13.991-13.379H159.8V404.1a11.44,11.44,0,0,0,11.433,11.442l74.835.044a11.44,11.44,0,0,0,11.446-11.437Z" transform="translate(-159.803 -374.085)" fill="#2680eb"/></g><g transform="translate(38.208 17.755)"><path d="M232.548,409.082h2.292a2.534,2.534,0,1,1,0,5.044h-2.292Zm2.234,4.086a1.566,1.566,0,1,0,0-3.127h-1.066v3.127Z" transform="translate(-232.548 -408.455)" fill="#fff"/><path d="M246.925,412.917v2.212h-1.052v-.483a1.272,1.272,0,0,1-1.181.54c-.908,0-1.449-.5-1.449-1.174,0-.685.483-1.16,1.664-1.16h.893c0-.483-.288-.764-.893-.764a1.863,1.863,0,0,0-1.117.36l-.4-.786a2.982,2.982,0,0,1,1.672-.468C246.24,411.2,246.925,411.743,246.925,412.917Zm-1.124.987v-.4h-.771c-.526,0-.692.195-.692.454,0,.281.238.469.634.469A.828.828,0,0,0,245.8,413.9Z" transform="translate(-237.626 -409.459)" fill="#fff"/><path d="M256.145,412.91v2.219h-1.124v-2.046c0-.627-.288-.915-.785-.915-.54,0-.929.331-.929,1.045v1.917h-1.124v-3.876h1.074v.454a1.7,1.7,0,0,1,1.283-.512A1.519,1.519,0,0,1,256.145,412.91Z" transform="translate(-241.87 -409.459)" fill="#fff"/><path d="M261.4,408.516a.642.642,0,0,1,.7-.627.631.631,0,0,1,.7.605.7.7,0,0,1-1.4.022Zm.137,1.168h1.124v3.876h-1.124Z" transform="translate(-246.244 -407.889)" fill="#fff"/><path d="M269.3,413.508h-2.932a1.034,1.034,0,0,0,1.11.778,1.313,1.313,0,0,0,.972-.374l.6.648a2.263,2.263,0,0,1-3.811-1.369,1.973,1.973,0,0,1,2.067-2,1.919,1.919,0,0,1,2.017,2.01C269.321,413.292,269.306,413.414,269.3,413.508Zm-2.947-.655h1.909a.968.968,0,0,0-1.909,0Z" transform="translate(-248.067 -409.459)" fill="#fff"/><path d="M274.436,408.506h1.124v5.346h-1.124Z" transform="translate(-252.435 -408.182)" fill="#fff"/></g><g transform="translate(44.49 27.027)"><path d="M245.447,425.582v2.957h-.216v-2.762h-.722v-.194Z" transform="translate(-244.509 -425.561)" fill="#fff"/><path d="M247.72,427.042c0-.925.477-1.5,1.158-1.5s1.157.575,1.157,1.5-.477,1.5-1.157,1.5S247.72,427.966,247.72,427.042Zm2.1,0c0-.824-.384-1.3-.941-1.3s-.942.477-.942,1.3.384,1.3.942,1.3S249.819,427.865,249.819,427.042Z" transform="translate(-246.033 -425.542)" fill="#fff"/><path d="M253.04,427.16a.177.177,0,1,1,.355,0,.177.177,0,1,1-.355,0Zm0,1.879a.177.177,0,1,1,.355,0,.177.177,0,1,1-.355,0Z" transform="translate(-248.559 -426.226)" fill="#fff"/><path d="M254.625,427.042c0-.925.477-1.5,1.157-1.5s1.157.575,1.157,1.5-.477,1.5-1.157,1.5S254.625,427.966,254.625,427.042Zm2.1,0c0-.824-.384-1.3-.942-1.3s-.942.477-.942,1.3.384,1.3.942,1.3S256.724,427.865,256.724,427.042Z" transform="translate(-249.312 -425.542)" fill="#fff"/><path d="M262.34,427.72h-.621v.819h-.211v-.819h-1.685v-.156l1.605-1.981h.241l-1.575,1.947h1.419v-.722h.206v.722h.621Z" transform="translate(-251.78 -425.561)" fill="#fff"/></g><g transform="translate(9.981 14.018)"><rect width="11.366" height="11.366" rx="4.449" fill="#fafafa"/></g><g transform="translate(77.797 13.363)"><path d="M316.7,410.77h-6.307a2.471,2.471,0,0,1-2.468-2.468v-6.307a2.471,2.471,0,0,1,2.468-2.468H316.7a2.471,2.471,0,0,1,2.468,2.468V408.3A2.471,2.471,0,0,1,316.7,410.77Zm-6.307-10.981a2.208,2.208,0,0,0-2.205,2.205V408.3a2.208,2.208,0,0,0,2.205,2.205H316.7A2.208,2.208,0,0,0,318.9,408.3v-6.307a2.208,2.208,0,0,0-2.205-2.205Z" transform="translate(-307.923 -399.526)" fill="#fff"/></g><g transform="translate(13.046 17.849)"><path d="M189.333,408.067h-4.149a.544.544,0,0,0-.544.544v2.739a.544.544,0,0,0,.544.544h.353V413.1l1.4-1.208h2.4a.544.544,0,0,0,.544-.544v-2.739A.544.544,0,0,0,189.333,408.067Zm-3.39,2.417a.405.405,0,1,1,.405-.405A.406.406,0,0,1,185.943,410.484Zm1.262,0a.405.405,0,1,1,.405-.405A.406.406,0,0,1,187.205,410.484Zm1.35,0a.405.405,0,1,1,.405-.405A.406.406,0,0,1,188.556,410.484Z" transform="translate(-184.641 -408.067)" fill="#75c6fa"/></g><g transform="translate(81.019 16.847)"><g transform="translate(0.795)"><path d="M315.736,409.745a.132.132,0,0,1-.13-.116,3.176,3.176,0,0,1,1.661-3.459.132.132,0,0,1,.1.243,2.873,2.873,0,0,0-1.5,3.185.131.131,0,0,1-.114.146Z" transform="translate(-315.572 -406.16)" fill="#fff"/></g><g transform="translate(0 2.35)"><path d="M315.017,411.87a.133.133,0,0,1-.1-.046l-.828-.972a.131.131,0,0,1,.015-.185.132.132,0,0,1,.185.015l.722.847.635-.841a.131.131,0,0,1,.209.158l-.733.972a.131.131,0,0,1-.1.053Z" transform="translate(-314.058 -410.636)" fill="#fff"/></g><g transform="translate(2.128 0.689)"><g transform="translate(0 0)"><path d="M318.241,411.058a.131.131,0,0,1-.05-.253,2.872,2.872,0,0,0,1.5-3.185.131.131,0,0,1,.114-.145.135.135,0,0,1,.146.115,3.175,3.175,0,0,1-1.661,3.459A.137.137,0,0,1,318.241,411.058Z" transform="translate(-318.11 -407.474)" fill="#fff"/></g><g transform="translate(0.847)"><path d="M319.853,408.708a.132.132,0,0,1-.1-.211l.734-.972a.128.128,0,0,1,.1-.052h0a.131.131,0,0,1,.1.046l.827.972a.131.131,0,1,1-.2.171l-.722-.848-.635.841A.13.13,0,0,1,319.853,408.708Z" transform="translate(-319.722 -407.473)" fill="#fff"/></g></g></g></g><g transform="translate(12.838 19.193)"><circle cx="7.732" cy="7.732" r="7.732" fill="#ebebeb"/><g transform="translate(5.169 5.478)"><path d="M186.742,98.351a.131.131,0,0,1-.1-.04l-2.017-2.123a.131.131,0,0,1,0-.181l2.017-2.123a.131.131,0,0,1,.19.181L184.907,96.1l1.931,2.032a.131.131,0,0,1-.1.222Z" transform="translate(-184.594 -93.843)" fill="#263238"/><g transform="translate(0 2.123)"><path d="M190.245,98.148h-5.52a.131.131,0,0,1,0-.263h5.52a.131.131,0,0,1,0,.263Z" transform="translate(-184.594 -97.885)" fill="#263238"/></g></g></g><g transform="translate(93.896 159.034)"><path d="M329.08,349.662" transform="translate(-329.08 -349.662)" fill="#263238"/></g><g transform="translate(81.91 154.122)"><g transform="translate(0 0)"><path d="M6.955,0A6.955,6.955,0,1,1,0,6.955,6.955,6.955,0,0,1,6.955,0Z" transform="matrix(0.161, -0.987, 0.987, 0.161, 0, 13.729)" fill="#75c6fa"/></g><g transform="translate(6.729 4.305)"><path d="M320.325,353.747a1.255,1.255,0,0,1-1.254-1.254v-2.732a1.254,1.254,0,1,1,2.507,0v2.732A1.255,1.255,0,0,1,320.325,353.747Zm0-4.978a.993.993,0,0,0-.992.992v2.732a.991.991,0,1,0,1.982,0v-2.732A.992.992,0,0,0,320.325,348.77Z" transform="translate(-319.071 -348.507)" fill="#fff"/></g><g transform="translate(5.548 7.282)"><path d="M319.257,357.317a2.264,2.264,0,0,1-1.761-.7,3.345,3.345,0,0,1-.664-2.327.131.131,0,1,1,.262.026,3.127,3.127,0,0,0,.6,2.126,2.01,2.01,0,0,0,1.565.609,2.1,2.1,0,0,0,1.586-.609,3.282,3.282,0,0,0,.723-2.135.131.131,0,0,1,.126-.137.137.137,0,0,1,.137.126,3.5,3.5,0,0,1-.8,2.327A2.356,2.356,0,0,1,319.257,357.317Z" transform="translate(-316.822 -354.174)" fill="#fff"/></g><g transform="translate(7.852 10.162)"><path d="M321.34,361.843a.132.132,0,0,1-.131-.131v-1.922a.131.131,0,0,1,.263,0v1.922A.132.132,0,0,1,321.34,361.843Z" transform="translate(-321.209 -359.658)" fill="#fff"/></g></g><g transform="translate(43.004 159.035)"><path d="M12.225,0A12.225,12.225,0,1,1,0,12.225,12.225,12.225,0,0,1,12.225,0Z" fill="#75c6fa"/><g transform="translate(7.814 8.395)"><path d="M250.385,366.095a2.113,2.113,0,0,0-3.162.642,1.269,1.269,0,0,0,.294,1.591c1.123,1.1,3.482,3.315,4.508,4.274a2.538,2.538,0,0,0,2.094.679,2.191,2.191,0,0,0,1.484-.919c1.158-1.587-1.615-2.826-1.615-2.826l-1.212,1.273-2.826-2.726,1.238-1.366Z" transform="translate(-247.063 -365.646)" fill="#fff"/></g></g></g></g></svg>